<?xml version="1.0" standalone="no"?>
<!DOCTYPE svg PUBLIC "-//W3C//DTD SVG 20010904//EN"
 "http://www.w3.org/TR/2001/REC-SVG-20010904/DTD/svg10.dtd">
<svg version="1.0" xmlns="http://www.w3.org/2000/svg"
 width="300.000000pt" height="300.000000pt" viewBox="0 0 300.000000 300.000000"
 preserveAspectRatio="xMidYMid meet">

<g transform="translate(0.000000,300.000000) scale(0.100000,-0.100000)"
fill="#000000" stroke="none">
<path d="M1328 2583 c6 -2 18 -2 25 0 6 3 1 5 -13 5 -14 0 -19 -2 -12 -5z"/>
<path d="M1288 2573 c7 -3 16 -2 19 1 4 3 -2 6 -13 5 -11 0 -14 -3 -6 -6z"/>
<path d="M1149 2554 c-7 -9 -22 -20 -34 -24 -12 -6 -14 -9 -5 -9 8 0 29 11 45
24 17 14 25 25 19 25 -6 0 -18 -7 -25 -16z"/>
<path d="M1740 2545 c-19 -23 -6 -28 35 -14 29 11 33 15 18 20 -28 12 -40 10
-53 -6z"/>
<path d="M953 2543 c-7 -2 -13 -11 -13 -19 0 -17 55 -19 66 -3 12 19 -24 34
-53 22z"/>
<path d="M1038 2543 c7 -3 16 -2 19 1 4 3 -2 6 -13 5 -11 0 -14 -3 -6 -6z"/>
<path d="M1355 2540 c-3 -5 -1 -10 4 -10 6 0 11 5 11 10 0 6 -2 10 -4 10 -3 0
-8 -4 -11 -10z"/>
<path d="M841 2519 c-58 -11 -65 -17 -221 -169 -74 -73 -156 -146 -182 -162
-25 -15 -49 -35 -52 -43 -3 -8 -11 -15 -18 -15 -7 0 -21 -12 -30 -28 -10 -15
-33 -48 -53 -74 -19 -27 -32 -48 -28 -48 4 0 -7 -12 -23 -27 -43 -41 -76 -92
-70 -109 3 -7 0 -13 -6 -11 -23 4 -46 -118 -42 -231 1 -59 3 -117 3 -130 1
-13 4 -21 9 -18 4 2 9 -33 10 -79 3 -84 17 -135 52 -184 10 -14 27 -51 36 -81
10 -30 34 -83 54 -117 41 -71 193 -243 259 -292 25 -19 72 -58 103 -88 31 -29
62 -53 68 -53 6 0 49 -18 95 -40 46 -22 91 -40 99 -40 8 0 39 -9 68 -19 29
-11 141 -39 248 -62 185 -40 203 -42 345 -40 83 1 166 4 185 7 19 4 58 8 85
11 28 2 69 13 92 24 24 10 47 19 52 19 35 0 199 65 248 98 32 21 73 47 90 56
19 9 35 27 39 41 3 13 11 23 17 22 6 -1 16 8 22 20 7 13 15 20 18 17 9 -9 38
16 31 27 -3 5 -10 7 -15 4 -5 -4 -9 -2 -9 4 0 5 5 13 10 16 6 3 10 17 10 30 0
13 4 27 10 30 12 8 13 35 1 54 -8 12 -13 12 -24 3 -11 -10 -17 -9 -26 2 -9 11
-9 15 1 19 10 4 10 6 0 6 -8 1 -27 -13 -44 -29 -16 -17 -33 -28 -38 -25 -4 3
-11 -3 -14 -12 -4 -10 -4 -14 0 -11 3 4 13 1 20 -7 15 -15 18 -26 6 -23 -11 4
-62 -38 -62 -52 0 -6 -4 -9 -8 -6 -4 2 -14 1 -22 -4 -12 -7 -12 -11 0 -25 11
-14 11 -16 -1 -13 -9 2 -13 -4 -12 -18 2 -21 0 -21 -39 -11 -39 10 -40 11 -17
19 19 8 21 11 9 19 -11 8 -12 12 -2 16 19 7 14 26 -5 19 -9 -4 -20 -1 -25 6
-6 10 -8 9 -8 -4 0 -9 -9 -18 -22 -20 -13 -2 -24 -12 -28 -24 -3 -12 -16 -36
-30 -54 -19 -25 -30 -31 -52 -28 -22 4 -28 1 -28 -13 0 -12 9 -19 28 -21 29
-3 29 0 13 -91 0 -4 -4 -6 -8 -5 -5 1 -19 -3 -33 -10 -22 -12 -22 -10 5 12 16
14 26 28 23 31 -12 12 -43 -5 -59 -31 -10 -17 -19 -22 -23 -15 -4 6 -2 11 4
11 19 0 -22 35 -43 36 -14 1 -17 -4 -13 -21 5 -19 3 -22 -14 -18 -11 3 -20 0
-20 -6 0 -24 -26 2 -27 27 0 15 1 19 4 9 5 -19 12 -21 33 -7 13 8 12 10 -4 10
-15 0 -16 3 -6 15 7 8 21 15 32 15 17 0 20 5 16 30 -3 16 0 30 5 30 5 0 7 7 3
15 -4 12 0 14 22 9 37 -9 38 -11 11 -33 -28 -22 -23 -36 5 -16 19 15 31 81 16
90 -4 3 9 23 30 44 32 33 43 39 69 35 27 -5 31 -2 31 18 0 17 3 19 9 9 5 -8
11 -9 15 -3 3 5 -1 15 -9 22 -7 6 -11 19 -8 28 6 15 4 15 -10 4 -21 -17 -77
-7 -77 14 0 11 -8 14 -27 12 -16 -2 -28 -9 -28 -17 0 -29 -25 -22 -31 8 -6 26
-34 66 -34 47 0 -4 -9 -2 -20 4 -16 9 -18 8 -14 -5 4 -8 10 -15 16 -15 5 0 6
-4 3 -10 -3 -5 2 -10 13 -10 21 0 24 -23 6 -54 -11 -18 -34 -15 -34 5 0 6 4 8
9 4 5 -3 13 0 17 7 4 7 4 10 -1 6 -4 -4 -14 -3 -21 3 -9 7 -19 7 -33 0 -14 -8
-22 -8 -27 0 -4 8 -9 7 -15 -2 -6 -10 -9 -10 -9 -2 0 6 4 14 9 17 4 3 6 17 3
31 -3 16 0 25 9 25 7 0 9 3 6 7 -4 3 2 13 13 20 17 12 24 12 36 2 12 -10 13
-9 8 4 -3 10 1 17 13 20 16 4 16 5 1 6 -19 1 -26 31 -7 31 6 0 9 6 6 13 -2 6
3 18 12 25 14 11 14 11 -3 5 -15 -5 -17 -3 -11 8 5 8 0 6 -12 -4 -12 -10 -44
-21 -74 -24 -44 -4 -65 0 -114 21 -33 15 -69 35 -80 45 -25 23 -85 36 -86 18
-1 -6 -2 -23 -2 -37 -2 -19 -9 -26 -32 -30 -18 -3 -25 -8 -18 -13 6 -4 18 -4
27 -1 23 9 40 -5 26 -21 -12 -14 -39 -9 -53 9 -6 8 -10 7 -14 -1 -5 -14 -24
-18 -22 -5 3 20 -4 22 -31 5 -16 -9 -30 -26 -30 -36 0 -12 11 -23 30 -30 17
-6 30 -14 30 -17 0 -14 80 4 96 21 16 18 16 19 -2 20 -11 0 -14 3 -6 6 7 3 19
0 26 -6 10 -8 19 -6 37 7 13 11 31 17 39 15 38 -11 60 -28 60 -47 0 -15 3 -17
9 -8 4 8 12 14 17 15 5 1 8 8 8 15 -1 6 2 12 7 12 5 0 12 0 17 0 4 0 7 -3 7
-7 0 -5 4 -14 9 -22 8 -13 10 -12 15 1 5 13 8 13 18 3 9 -10 4 -17 -23 -31
-36 -20 -44 -34 -19 -34 8 0 15 -9 15 -21 0 -11 -4 -18 -9 -15 -5 3 -14 -1
-21 -9 -7 -8 -19 -15 -27 -15 -12 0 -14 7 -9 30 3 19 2 29 -4 25 -6 -3 -10 -1
-10 6 0 8 -3 9 -14 0 -8 -7 -12 -27 -11 -51 l2 -40 -23 27 c-25 29 -30 43 -15
43 4 0 6 12 3 26 -3 18 -7 22 -13 13 -4 -7 -5 -18 -1 -24 3 -5 -2 -3 -12 5
-16 12 -20 12 -30 -1 -6 -9 -19 -16 -29 -16 -16 0 -15 3 3 34 l20 34 -29 -17
c-17 -10 -28 -24 -26 -34 2 -10 -4 -16 -18 -17 -11 -1 -24 -7 -28 -14 -5 -9
-20 -9 -60 -1 -53 10 -96 1 -85 -17 3 -4 -5 -6 -18 -4 -13 3 -27 0 -30 -6 -5
-7 1 -10 16 -8 16 1 24 -4 26 -18 3 -25 -17 -56 -25 -37 -2 6 -9 10 -14 7 -4
-3 -11 6 -15 20 -3 14 -11 22 -17 18 -5 -3 -7 -1 -4 4 4 6 0 16 -8 23 -8 7
-13 16 -10 20 6 10 -43 5 -53 -5 -4 -4 -1 -10 6 -12 6 -3 12 -11 12 -19 0 -9
5 -12 13 -8 8 5 8 3 -1 -7 -11 -12 -15 -12 -25 2 -7 9 -25 19 -42 23 -16 4
-37 9 -45 11 -10 3 -15 -3 -16 -19 -1 -17 2 -23 12 -19 8 3 14 -1 14 -11 0 -9
5 -16 11 -16 6 0 8 9 4 20 -5 16 -2 20 15 20 16 0 20 -5 16 -15 -3 -8 0 -14 7
-12 14 2 12 -19 -8 -67 -11 -27 -19 -33 -35 -29 -34 9 -22 -12 18 -32 l37 -19
-32 -4 c-23 -2 -33 -9 -34 -20 0 -9 -3 -12 -5 -6 -3 6 -15 9 -27 7 -15 -3 -32
5 -50 21 -19 17 -39 26 -62 26 -24 0 -41 8 -59 26 -15 17 -30 25 -40 21 -22
-9 -39 24 -20 38 9 6 13 17 9 25 -6 17 -63 45 -72 37 -3 -4 -22 9 -41 28 -20
19 -48 40 -62 47 -14 7 -27 14 -29 15 -2 1 2 10 9 18 11 13 11 19 -3 33 -13
13 -19 14 -29 4 -15 -15 -31 -16 -22 0 5 8 2 9 -9 5 -9 -3 -18 -3 -21 1 -2 4
7 9 21 10 34 3 43 10 36 28 -4 11 -14 14 -33 10 -22 -4 -30 0 -40 22 -18 37
-24 84 -11 92 8 4 6 16 -5 38 -16 33 -29 41 -36 21 -2 -7 -13 -6 -33 2 -17 7
-41 11 -54 10 -24 -3 -24 -3 -7 24 17 25 17 28 1 45 -10 11 -22 18 -29 17 -6
-1 -10 10 -8 28 2 20 0 26 -6 17 -13 -20 -23 24 -12 53 6 17 5 25 -4 28 -7 3
-16 20 -20 38 -5 26 -2 35 16 48 13 9 26 15 31 13 20 -6 -15 53 -54 90 -27 26
-33 39 -32 71 1 21 5 48 8 60 6 21 6 22 -9 3 -9 -11 -16 -18 -17 -15 -6 31 -5
56 3 66 7 9 5 15 -6 19 -14 5 -14 9 -1 34 18 35 19 44 3 34 -6 -4 -8 -3 -4 4
3 5 1 13 -4 15 -6 3 -5 4 2 3 7 -2 21 1 31 6 13 7 15 13 7 28 -14 26 -13 33 6
26 8 -3 12 -2 9 4 -3 5 4 14 15 20 16 9 18 15 10 30 -8 16 -6 22 15 36 17 11
22 20 16 28 -6 8 2 21 26 41 71 60 94 85 89 94 -3 5 0 11 8 14 8 3 17 -1 20
-10 5 -13 9 -13 23 -2 9 8 14 9 10 2 -10 -16 20 -10 36 7 10 10 9 12 -5 7 -9
-3 -22 1 -28 9 -7 8 -9 14 -5 14 4 0 3 6 -3 13 -7 8 -6 16 4 25 13 12 18 8 15
-11 -1 -5 4 -5 10 -1 9 5 10 2 6 -12 -7 -17 -5 -17 10 2 10 12 27 27 38 33 18
11 18 11 -5 5 -14 -4 -28 -11 -31 -16 -4 -6 -9 -6 -14 2 -8 13 18 40 58 57 15
7 27 16 27 21 0 5 22 19 49 31 31 15 48 29 47 40 -1 10 8 17 22 19 20 3 23 0
17 -17 -8 -25 -7 -25 34 -5 19 9 30 22 27 29 -2 7 4 15 15 18 10 3 19 10 19
16 0 6 -6 8 -14 5 -8 -3 -17 -1 -21 5 -3 6 1 12 9 12 16 1 28 4 44 9 4 1 9 2
12 2 3 0 6 11 6 24 1 13 -1 24 -5 23 -3 -1 -26 -5 -50 -10z m-336 -320 c-4 -5
-12 -9 -18 -8 -9 0 -8 2 1 6 6 2 9 10 6 15 -4 7 -2 8 5 4 6 -4 9 -12 6 -17z
m-269 -574 c-6 -16 11 -54 29 -67 6 -5 5 -15 -4 -30 -10 -18 -10 -20 0 -10 17
16 29 15 29 -3 0 -9 -7 -14 -17 -12 -26 4 -44 17 -38 27 3 5 -1 22 -9 38 -8
16 -12 32 -9 36 4 3 0 6 -9 6 -8 0 -15 7 -15 15 0 9 10 15 25 15 18 0 23 -4
18 -15z m359 -745 c3 -6 -1 -7 -9 -4 -18 7 -21 14 -7 14 6 0 13 -4 16 -10z m5
-40 c0 -5 -4 -10 -10 -10 -5 0 -10 5 -10 10 0 6 5 10 10 10 6 0 10 -4 10 -10z
m1768 -81 c-9 -6 -14 -3 -16 8 -2 8 2 19 10 24 9 6 14 3 16 -8 2 -8 -2 -19
-10 -24z m-787 14 c13 -17 13 -17 -6 -3 -11 8 -22 16 -24 17 -2 2 0 3 6 3 6 0
17 -8 24 -17z m-115 -18 c3 -19 -33 -30 -51 -15 -21 18 -18 33 5 27 11 -3 23
-1 26 5 7 11 17 3 20 -17z m281 -7 c-3 -7 -5 -2 -5 12 0 14 2 19 5 13 2 -7 2
-19 0 -25z m-403 7 c3 -8 1 -15 -4 -15 -6 0 -10 7 -10 15 0 8 2 15 4 15 2 0 6
-7 10 -15z m206 1 c0 -8 -4 -17 -9 -21 -6 -3 -9 4 -8 15 1 23 17 28 17 6z
m809 -23 c2 -1 -6 -1 -18 0 -11 1 -21 8 -21 15 0 12 3 12 18 1 9 -7 19 -14 21
-16z m55 19 c3 -5 -1 -9 -9 -9 -8 0 -12 4 -9 9 3 4 7 8 9 8 2 0 6 -4 9 -8z
m-819 -39 c-2 -16 1 -33 7 -40 6 -8 7 -22 1 -40 -9 -26 -10 -27 -15 -5 -4 12
-2 20 3 16 12 -7 11 7 -4 33 -7 12 -16 22 -22 22 -5 0 -12 8 -14 18 -3 14 -1
15 12 5 12 -10 16 -10 21 3 9 24 15 18 11 -12z m53 -13 c-5 -26 -33 -17 -34
12 -1 23 1 25 18 15 10 -7 17 -19 16 -27z m-140 14 c4 2 7 -7 7 -19 0 -29 -10
-20 -19 15 -3 14 -3 19 0 12 3 -6 9 -10 12 -8z m-43 -4 c3 -5 2 -10 -4 -10
-16 0 0 -31 28 -58 18 -16 22 -25 14 -29 -18 -7 -16 -23 2 -23 8 0 15 -4 15
-10 0 -15 -27 -12 -33 4 -7 17 -48 11 -104 -16 -63 -31 -56 -43 22 -38 17 1
32 6 33 11 2 5 10 9 18 9 8 0 14 6 15 13 0 6 4 3 9 -8 5 -15 18 -21 43 -23 43
-3 232 43 266 65 13 8 20 10 17 4 -4 -6 -4 -17 1 -23 15 -25 11 -89 -4 -74
-10 9 -33 -15 -26 -27 3 -6 1 -7 -5 -3 -6 4 -9 13 -5 21 3 8 1 15 -3 16 -5 0
-17 2 -26 4 -10 2 -18 -1 -18 -7 0 -5 -9 -6 -20 -3 -23 7 -28 -13 -5 -21 16
-6 21 -39 7 -48 -13 -8 -82 18 -82 31 0 7 -5 13 -11 13 -6 0 -8 9 -4 20 5 14
2 20 -10 20 -9 0 -13 -5 -10 -11 4 -6 0 -9 -11 -7 -13 2 -19 -3 -18 -14 1 -10
-4 -18 -12 -18 -8 0 -11 7 -8 18 5 15 4 15 -10 -2 -14 -17 -16 -17 -31 -2 -23
23 -40 20 -71 -14 -20 -20 -31 -26 -36 -17 -4 6 -2 15 5 20 7 4 -9 6 -35 3
-35 -3 -48 0 -52 11 -4 10 -1 13 13 8 35 -11 13 40 -25 58 -19 9 -34 21 -34
27 0 5 -9 10 -21 10 -12 0 -19 5 -16 13 2 6 -3 18 -12 25 -14 11 -10 12 26 10
23 -2 39 1 36 5 -3 5 4 6 16 2 13 -4 21 -2 21 5 0 21 29 41 65 44 20 2 41 8
48 15 14 14 34 14 42 1z m293 -10 c12 -11 26 -20 31 -20 5 0 13 -5 17 -12 4
-7 3 -8 -4 -4 -7 4 -12 2 -12 -4 0 -7 -7 -9 -16 -6 -8 3 -26 -1 -39 -10 -28
-18 -58 -12 -49 9 4 11 -1 13 -20 10 -16 -3 -26 -1 -26 6 0 6 6 11 14 11 8 0
24 9 37 20 30 25 40 25 67 0z m-214 -11 c-3 -5 -10 -7 -15 -3 -5 3 -7 10 -3
15 3 5 10 7 15 3 5 -3 7 -10 3 -15z m-354 -29 c-18 -11 -24 -6 -16 16 5 14 9
15 19 5 9 -9 9 -14 -3 -21z m949 -2 c-2 -13 0 -29 5 -36 7 -11 4 -11 -12 -1
-24 15 -35 46 -18 53 22 9 27 6 25 -16z m135 -4 c3 -8 2 -12 -4 -9 -6 3 -10
10 -10 16 0 14 7 11 14 -7z m-396 -8 c-24 -18 -23 -26 5 -27 12 0 16 -3 10 -6
-7 -2 -13 -12 -13 -21 -1 -16 -1 -16 -10 0 -6 10 -18 14 -30 11 -11 -3 -20 -2
-20 1 0 10 53 55 65 55 6 0 2 -6 -7 -13z m217 -36 c3 -5 1 -10 -4 -10 -6 0
-11 5 -11 10 0 6 2 10 4 10 3 0 8 -4 11 -10z m-532 -45 c-3 -9 -8 -14 -10 -11
-3 3 -2 9 2 15 9 16 15 13 8 -4z m-489 -31 c3 -8 2 -12 -4 -9 -6 3 -10 10 -10
16 0 14 7 11 14 -7z m804 4 c-6 -18 -28 -21 -28 -4 0 9 7 16 16 16 9 0 14 -5
12 -12z m177 -38 c3 -5 1 -10 -4 -10 -6 0 -11 5 -11 10 0 6 2 10 4 10 3 0 8
-4 11 -10z m-317 -45 c-3 -3 -9 2 -12 12 -6 14 -5 15 5 6 7 -7 10 -15 7 -18z"/>
<path d="M1635 2492 c-2 -2 -32 -5 -67 -6 -35 -1 -69 -5 -74 -8 -5 -3 -37 -4
-72 -3 -35 2 -77 -2 -93 -8 -31 -12 -39 -27 -14 -27 8 0 15 -7 15 -15 0 -8 -6
-14 -12 -12 -7 1 -12 -3 -11 -8 3 -20 -42 -14 -65 8 -22 20 -23 20 -16 2 4
-11 12 -23 18 -27 7 -5 7 -8 -1 -8 -7 0 -13 -4 -13 -10 0 -5 6 -7 13 -4 7 2
13 -4 14 -16 1 -11 -4 -20 -11 -20 -22 0 -37 -25 -24 -38 9 -9 7 -12 -10 -12
-11 0 -26 8 -31 18 -10 16 -10 16 -11 0 0 -9 -4 -19 -9 -22 -4 -3 -6 6 -3 19
2 14 1 36 -2 51 l-7 26 -21 -27 c-13 -17 -23 -23 -28 -15 -5 8 -10 7 -18 -3
-10 -11 -7 -20 14 -42 19 -21 34 -27 64 -27 22 0 42 -3 45 -8 3 -5 13 -6 21
-3 14 5 27 7 72 12 8 0 10 6 6 14 -6 8 -3 8 9 -2 13 -10 24 -11 47 -3 22 8 30
8 30 -1 0 -7 5 -4 11 6 8 13 7 22 -1 33 -10 11 -10 14 1 14 22 0 42 -17 35
-28 -4 -7 5 -9 25 -5 31 5 62 -10 100 -48 24 -24 39 -24 39 0 0 12 -9 21 -26
25 -17 5 -24 12 -20 21 2 7 -4 25 -16 40 -11 14 -17 29 -14 32 10 10 46 11 40
1 -6 -9 -1 -10 81 -14 75 -3 155 -13 175 -21 8 -3 21 -5 28 -4 7 1 11 -4 10
-11 -2 -8 4 -12 15 -10 10 2 35 -7 55 -20 20 -13 41 -23 46 -23 5 0 10 -8 12
-18 1 -11 5 -21 7 -24 10 -10 -28 -43 -49 -43 -27 0 -42 -18 -39 -48 1 -12 -5
-28 -14 -35 -9 -8 -12 -8 -8 -1 4 7 0 15 -9 18 -20 8 -39 8 -32 0 3 -3 2 -21
-2 -40 -4 -19 -4 -37 1 -40 16 -10 10 -24 -11 -24 -14 0 -19 -6 -17 -20 2 -11
7 -23 12 -27 4 -5 5 -2 1 5 -4 6 -2 12 3 12 18 0 12 -38 -5 -42 -11 -2 -5 -9
20 -20 20 -10 35 -14 33 -10 -1 4 3 7 8 7 6 0 9 -3 8 -7 -5 -13 38 -3 46 11 6
9 15 9 36 1 24 -9 27 -13 15 -21 -11 -8 -8 -10 12 -6 15 2 25 0 22 -4 -3 -5 4
-9 15 -9 11 0 23 -4 26 -10 4 -6 11 -5 19 3 8 6 12 16 9 20 -3 4 7 5 21 1 31
-8 35 10 6 26 -11 6 -19 14 -16 18 5 8 -1 9 -71 14 -23 2 -45 7 -50 12 -4 5 0
6 10 3 20 -7 22 4 5 21 -8 8 -8 12 -1 12 6 0 13 -7 17 -15 7 -18 26 -20 26 -2
0 24 -17 38 -51 43 -50 7 -59 12 -59 29 0 14 8 15 45 9 38 -5 46 -4 51 12 14
39 35 53 68 47 47 -9 114 -40 155 -71 20 -15 48 -34 64 -41 15 -8 27 -19 27
-24 0 -5 24 -32 54 -61 54 -51 82 -93 72 -103 -3 -4 -27 -7 -53 -7 -27 -1 -58
-7 -70 -14 -13 -7 -23 -10 -23 -6 0 3 -7 1 -15 -6 -8 -6 -23 -9 -36 -5 -16 5
-20 4 -13 -6 13 -21 5 -73 -13 -86 -9 -7 -28 -13 -41 -13 -18 0 -22 4 -17 19
5 18 3 18 -19 8 -25 -12 -36 -37 -16 -37 6 0 10 6 10 13 0 6 9 1 19 -12 14
-18 20 -20 23 -10 3 8 9 11 13 6 5 -4 0 -14 -11 -22 -10 -8 -15 -15 -10 -15 5
0 3 -6 -3 -14 -6 -8 -10 -19 -9 -26 2 -7 -8 -14 -21 -16 -67 -11 -61 -54 7
-54 29 0 53 -6 65 -17 12 -11 17 -12 12 -4 -6 10 -4 12 4 7 8 -5 14 0 18 13 3
12 9 21 14 21 13 0 11 -16 -4 -28 -7 -6 -12 -28 -12 -49 0 -43 22 -55 49 -27
16 15 16 17 0 28 -15 12 -15 15 1 49 23 48 28 51 58 27 30 -24 37 -17 30 28
-6 37 -18 42 -27 10 -5 -19 -8 -20 -15 -8 -7 10 -4 20 10 33 25 23 24 34 -2
48 -19 10 -21 9 -17 -8 5 -19 4 -19 -23 -6 -35 18 -36 27 -4 65 26 31 32 48
15 48 -5 0 -10 7 -10 15 0 21 71 40 98 26 11 -6 32 -11 45 -11 28 0 53 -24 62
-61 6 -23 0 -32 -46 -68 -28 -22 -58 -41 -67 -41 -13 0 -12 -3 3 -20 13 -15
21 -17 26 -9 8 14 77 -14 84 -34 13 -38 9 -52 -12 -51 -29 1 -30 -13 -1 -22
21 -6 21 -7 3 -20 -12 -9 -14 -14 -6 -14 8 0 11 -8 8 -20 -3 -11 -1 -20 4 -20
4 0 6 -7 3 -15 -4 -8 -9 -13 -13 -11 -3 2 -11 -7 -18 -20 -6 -14 -7 -26 -2
-30 5 -3 -1 -15 -12 -27 -15 -15 -23 -18 -26 -9 -7 19 -23 14 -23 -7 0 -10 -6
-21 -14 -24 -15 -6 -16 9 -3 30 6 9 3 11 -7 7 -9 -3 -16 -1 -16 5 0 6 -5 11
-11 11 -6 0 -8 -7 -5 -16 4 -9 1 -23 -5 -30 -6 -8 -9 -23 -6 -34 6 -24 -12
-38 -24 -19 -7 12 -9 12 -9 -1 0 -10 -5 -7 -16 8 -8 12 -21 22 -29 22 -8 0
-12 8 -10 20 2 11 0 20 -6 20 -20 0 -13 -50 9 -67 10 -7 13 -13 8 -13 -5 0 -1
-9 8 -19 19 -21 14 -41 -8 -41 -8 0 -19 7 -26 15 -10 12 -10 18 1 32 13 15 12
15 -8 5 -15 -8 -30 -9 -47 -3 -17 7 -27 6 -34 -2 -11 -15 9 -55 26 -49 6 2 12
-2 12 -9 0 -7 7 -21 17 -31 19 -22 6 -24 -23 -3 -12 8 -24 12 -26 9 -3 -2 -12
10 -20 27 -9 17 -18 27 -21 22 -4 -6 2 -26 12 -45 15 -30 15 -38 5 -53 -8 -10
-11 -22 -7 -28 3 -6 2 -7 -4 -4 -9 6 -43 -26 -43 -41 0 -16 53 -5 68 14 12 16
14 16 9 2 -7 -21 13 -24 31 -6 9 9 12 8 12 -6 0 -10 -18 -35 -40 -57 -22 -22
-46 -52 -55 -68 -14 -28 -14 -29 12 -36 18 -4 32 0 47 14 12 12 28 21 34 21 7
0 17 9 24 20 7 11 16 20 21 20 4 0 17 8 27 18 11 10 42 24 70 32 55 15 59 21
31 49 -20 20 -20 20 2 26 44 13 87 36 87 47 0 16 51 68 66 68 6 0 15 11 18 25
4 14 11 25 17 25 6 0 8 -4 5 -8 -3 -5 1 -9 9 -9 18 0 19 9 3 25 -9 9 -9 12 1
12 10 0 11 3 2 14 -8 10 -9 16 -1 21 5 3 10 3 11 -2 0 -4 4 1 9 12 7 15 8 9 6
-21 -3 -31 1 -45 15 -58 27 -23 32 -20 25 15 -3 18 -2 37 3 43 5 6 12 21 15
34 6 18 3 22 -16 23 -13 0 -17 3 -10 6 20 8 14 22 -8 16 -26 -7 -26 -4 12 75
25 53 32 80 33 129 0 33 -3 59 -7 56 -5 -2 -8 3 -8 11 0 9 -6 16 -14 16 -14 0
-29 28 -25 46 4 23 -2 45 -11 39 -6 -4 -7 -11 -4 -17 5 -7 2 -8 -5 -4 -8 5
-14 0 -18 -13 -5 -21 -19 -26 -46 -15 -10 4 -12 14 -8 37 5 25 16 36 51 53 25
12 50 19 55 16 6 -3 4 1 -2 9 -10 12 -10 18 0 28 9 11 9 14 -1 18 -7 3 -17 14
-23 25 -8 15 -8 19 0 14 6 -4 9 -2 6 6 -3 7 -15 18 -28 23 -14 6 -22 18 -21
33 0 12 -3 23 -8 23 -4 1 -12 2 -17 3 -5 0 -13 5 -18 10 -4 5 -3 6 4 2 17 -10
24 9 14 36 -6 12 -10 17 -10 9 -1 -11 -4 -10 -14 4 -8 10 -18 15 -24 12 -12
-7 -36 40 -28 53 3 5 -2 18 -12 28 -10 10 -26 34 -36 52 -17 32 -17 33 4 57
21 22 22 24 5 36 -12 9 -16 21 -12 40 4 24 0 30 -45 53 -54 27 -130 34 -154
14 -11 -10 -17 -9 -30 3 -8 8 -25 13 -37 11 -13 -2 -16 -1 -8 2 8 4 23 11 34
16 13 7 16 7 12 -1 -4 -6 0 -11 10 -11 13 0 14 3 5 14 -13 15 -54 29 -46 16 3
-5 -3 -8 -12 -8 -10 1 -27 -2 -39 -5 -12 -4 -28 -1 -40 9 -10 8 -12 12 -4 8 9
-4 12 -3 7 2 -9 9 -13 10 -43 13 -13 1 -14 4 -5 15 17 20 5 24 -62 22 -39 -1
-61 -7 -67 -16 -8 -12 -10 -12 -10 -1 0 7 -6 11 -15 7 -8 -3 -15 -1 -15 4 0
14 18 21 25 10 4 -6 11 -7 17 -4 7 5 2 11 -12 16 -14 5 -28 4 -36 -3 -15 -13
-34 -4 -34 17 0 16 -16 19 -25 4 -3 -5 -12 -7 -21 -3 -8 3 -20 -1 -27 -10 -19
-23 -64 -30 -71 -11 -8 22 -8 26 4 19 13 -8 40 12 40 29 0 7 -3 7 -8 1 -11
-15 -32 -17 -32 -2 0 10 -55 18 -65 9z m39 -31 c3 -5 0 -11 -7 -14 -8 -3 -14
1 -14 9 0 16 13 19 21 5z m201 -51 c4 -6 11 -8 16 -5 5 4 9 1 9 -4 0 -16 -19
-13 -36 4 -9 8 -11 15 -5 15 5 0 13 -5 16 -10z m-405 -29 c0 -16 -19 -23 -41
-16 -17 6 -19 9 -8 16 19 12 49 11 49 0z m-161 -38 c-26 -11 -34 -11 -40 -1
-11 17 41 39 59 25 10 -8 6 -13 -19 -24z m643 15 c-7 -7 -12 -8 -12 -2 0 6 3
14 7 17 3 4 9 5 12 2 2 -3 -1 -11 -7 -17z m98 -4 c0 -2 -9 -4 -20 -4 -11 0
-20 4 -20 9 0 5 9 7 20 4 11 -3 20 -7 20 -9z m-743 -56 c-3 -7 -5 -2 -5 12 0
14 2 19 5 13 2 -7 2 -19 0 -25z m888 -47 c3 -5 1 -12 -4 -15 -5 -3 -11 1 -15
9 -6 16 9 21 19 6z m-146 -125 c-3 -3 -11 5 -18 17 -13 21 -12 21 5 5 10 -10
16 -20 13 -22z m292 -14 c7 2 13 -3 14 -11 0 -8 9 -17 19 -21 17 -6 18 -7 3
-13 -9 -3 -17 -2 -17 3 0 6 -4 9 -8 8 -5 -2 -22 13 -38 32 -16 20 -19 27 -7
17 11 -10 26 -17 34 -15z m107 -33 c-2 -6 -8 -10 -13 -10 -5 0 -11 4 -13 10
-2 6 4 11 13 11 9 0 15 -5 13 -11z m-508 -99 c0 -11 -4 -20 -9 -20 -5 0 -7 9
-4 20 3 11 7 20 9 20 2 0 4 -9 4 -20z m-75 -40 c3 -5 1 -10 -4 -10 -6 0 -11 5
-11 10 0 6 2 10 4 10 3 0 8 -4 11 -10z m205 -50 c0 -5 -2 -10 -4 -10 -3 0 -8
5 -11 10 -3 6 -1 10 4 10 6 0 11 -4 11 -10z m250 -126 c0 -8 -5 -12 -10 -9 -6
4 -8 11 -5 16 9 14 15 11 15 -7z m329 -181 c2 -2 -3 -3 -11 -3 -9 0 -19 7 -22
16 -6 15 -4 15 11 3 10 -7 20 -15 22 -16z m-399 -47 c-1 -17 -2 -18 -9 -6 -5
8 -12 26 -15 40 -7 24 -6 24 8 6 9 -11 16 -29 16 -40z m340 -80 c0 -2 -9 -6
-20 -9 -11 -3 -18 -1 -14 4 5 9 34 13 34 5z m37 -132 c-3 -3 -12 -4 -19 -1 -8
3 -5 6 6 6 11 1 17 -2 13 -5z m48 -68 c-5 -24 -18 -46 -26 -46 -6 0 -5 9 1 20
6 11 9 24 6 29 -3 4 1 8 8 8 8 0 13 -5 11 -11z m-85 -31 c0 -8 0 -18 0 -22 0
-4 -6 -8 -13 -9 -11 -1 -15 22 -8 44 3 9 21 -1 21 -13z m-340 -115 c0 -5 -5
-10 -11 -10 -5 0 -7 5 -4 10 3 6 8 10 11 10 2 0 4 -4 4 -10z m100 -30 c26 -20
15 -70 -16 -70 -9 0 -11 12 -9 40 3 23 0 38 -4 35 -5 -3 -7 4 -4 16 6 20 6 20
16 3 6 -11 13 -21 17 -24z m80 0 c0 -5 -7 -10 -15 -10 -8 0 -15 5 -15 10 0 6
7 10 15 10 8 0 15 -4 15 -10z m-207 -35 c4 -8 2 -17 -4 -20 -5 -4 -9 -3 -8 2
4 22 -2 25 -15 7 -8 -10 -18 -15 -23 -11 -4 5 1 15 11 23 25 18 32 18 39 -1z"/>
<path d="M910 2460 c-9 -6 -10 -10 -3 -10 6 0 15 5 18 10 8 12 4 12 -15 0z"/>
<path d="M1194 2434 c-18 -14 -18 -14 6 -3 31 14 36 19 24 19 -6 0 -19 -7 -30
-16z"/>
<path d="M1250 2436 c0 -18 10 -25 26 -19 20 7 17 20 -6 26 -12 3 -20 0 -20
-7z"/>
<path d="M850 2401 c0 -10 6 -21 13 -24 10 -4 13 2 9 19 -5 28 -22 32 -22 5z"/>
<path d="M1146 2399 c2 -4 12 -5 22 -2 15 6 15 5 3 -10 -11 -14 -11 -17 0 -17
11 0 11 -2 -1 -10 -13 -9 -7 -14 13 -11 4 0 7 -3 7 -8 0 -5 7 -11 15 -15 11
-4 14 1 11 17 -2 12 1 27 6 33 5 8 2 14 -9 19 -25 11 -73 14 -67 4z m59 -8 c3
-5 2 -12 -3 -15 -5 -3 -9 1 -9 9 0 17 3 19 12 6z"/>
<path d="M777 2347 c-17 -12 -17 -15 -2 -51 9 -21 12 -35 7 -32 -5 3 -17 -11
-26 -32 -13 -28 -24 -38 -42 -40 -37 -3 -46 -10 -35 -31 9 -15 5 -18 -24 -18
l-34 0 29 31 c36 36 37 42 9 49 -34 9 -55 -9 -87 -76 -2 -4 2 -6 10 -5 20 4
22 -49 3 -68 -13 -13 -13 -19 -3 -33 12 -15 11 -15 -6 -1 -15 12 -20 12 -23 2
-3 -6 -9 -10 -14 -6 -5 3 -9 -2 -9 -10 0 -18 16 -30 23 -16 3 6 4 5 3 -2 -5
-19 22 -79 46 -105 12 -13 17 -27 12 -35 -6 -11 -5 -11 8 0 13 10 18 10 30 -1
7 -7 19 -12 26 -9 16 5 15 -13 -2 -27 -8 -6 -16 -21 -19 -32 -5 -19 -2 -21 25
-15 17 3 39 6 50 6 17 0 19 4 12 33 -4 17 -7 41 -6 52 1 19 0 19 -10 2 -9 -17
-12 -16 -29 12 -23 38 -23 41 -5 41 19 0 86 39 86 50 0 4 -7 13 -15 20 -9 7
-13 21 -10 31 3 9 2 20 -3 23 -5 3 -9 20 -10 37 0 17 -6 37 -11 42 -14 14 -14
27 0 27 5 0 7 -6 4 -12 -4 -7 0 -5 9 5 8 11 13 27 11 38 -2 10 0 21 6 24 5 4
9 3 10 -2 3 -32 10 -49 25 -60 23 -17 64 -17 64 0 0 22 -11 27 -32 16 -14 -7
-23 -8 -30 -1 -11 11 26 37 41 28 5 -3 16 5 25 19 14 21 14 26 2 31 -8 3 -12
13 -9 25 3 10 9 16 14 13 5 -3 7 -9 5 -13 -3 -4 -1 -13 4 -20 11 -19 36 -8 43
19 5 19 2 21 -19 16 -17 -5 -26 -2 -30 9 -11 28 -39 16 -36 -15 0 -3 -8 -6
-18 -6 -15 0 -18 6 -13 27 3 15 1 34 -4 43 -7 14 -12 14 -26 3z m-117 -252
c-11 -13 -10 -18 5 -29 13 -9 15 -15 7 -20 -7 -4 -12 -2 -12 3 0 6 -5 11 -11
11 -5 0 -8 -4 -5 -9 4 -5 -3 -7 -14 -4 -19 5 -19 6 -4 18 14 9 14 14 4 20 -9
6 -11 4 -5 -6 5 -8 6 -12 2 -9 -9 8 -8 25 3 26 6 1 15 2 20 3 6 0 10 6 10 12
0 5 -5 7 -12 3 -7 -5 -8 -3 -3 5 5 9 10 10 18 2 7 -7 6 -15 -3 -26z m35 15 c3
-5 1 -10 -4 -10 -6 0 -11 5 -11 10 0 6 2 10 4 10 3 0 8 -4 11 -10z m-75 -135
c5 3 10 -3 10 -14 0 -11 5 -23 10 -26 6 -3 10 -1 10 6 0 7 3 10 6 6 9 -9 -10
-37 -21 -29 -15 10 -45 68 -44 84 0 7 4 3 10 -10 5 -13 13 -20 19 -17z"/>
<path d="M740 2285 c-17 -21 -9 -27 13 -10 10 7 14 16 9 19 -5 3 -15 -1 -22
-9z"/>
<path d="M1775 2260 c-3 -5 -1 -10 4 -10 6 0 11 5 11 10 0 6 -2 10 -4 10 -3 0
-8 -4 -11 -10z"/>
<path d="M1334 2231 c-45 -28 -48 -38 -13 -46 17 -4 31 -5 32 -3 10 16 24 68
19 68 -4 0 -21 -9 -38 -19z"/>
<path d="M1666 2225 c-11 -8 -29 -12 -41 -9 -14 3 -24 0 -28 -8 -3 -10 9 -14
50 -16 44 -1 54 1 50 13 -4 10 -1 12 10 8 11 -4 14 -2 11 8 -7 20 -29 21 -52
4z"/>
<path d="M1176 2215 c4 -8 7 -15 9 -15 1 0 8 7 15 15 10 13 9 15 -8 15 -15 0
-20 -5 -16 -15z"/>
<path d="M1560 2202 c0 -15 -44 -42 -110 -67 -3 -1 -18 -7 -33 -13 -16 -7 -46
-12 -67 -12 -21 0 -45 -7 -54 -15 -10 -11 -17 -12 -22 -4 -3 6 0 15 7 20 8 5
11 9 7 10 -5 1 -12 3 -18 4 -5 1 -15 3 -21 4 -5 0 -7 7 -3 14 4 7 3 9 -2 4 -5
-5 -9 -12 -9 -16 0 -4 -8 -15 -17 -25 -24 -23 -23 -28 11 -60 26 -25 31 -26
50 -14 12 7 24 21 27 30 3 10 8 17 12 15 9 -2 131 43 157 59 20 12 59 13 71 2
9 -9 35 2 29 13 -3 4 -12 6 -20 2 -20 -7 -19 7 2 22 18 13 27 45 12 45 -5 0
-9 -8 -9 -18z m-303 -100 c1 -10 -5 -19 -12 -19 -10 0 -11 5 -4 19 5 10 11 18
12 18 2 0 3 -8 4 -18z"/>
<path d="M1106 2184 c-2 -6 -19 -14 -37 -18 -35 -7 -31 -19 10 -31 16 -5 21
-4 17 4 -4 6 -3 11 3 11 5 0 12 -6 14 -12 3 -8 6 -7 6 4 1 9 5 20 11 23 6 4 7
-1 4 -12 -5 -17 -5 -17 9 0 9 11 14 24 11 31 -6 15 -42 15 -48 0z"/>
<path d="M1844 2183 c3 -4 2 -11 -4 -17 -10 -14 5 -44 17 -33 4 5 2 12 -5 16
-10 6 -10 10 2 20 10 8 16 9 21 1 8 -13 25 -13 25 0 0 6 -3 9 -7 9 -5 -1 -10
0 -13 1 -15 5 -41 8 -36 3z"/>
<path d="M2535 2170 c3 -5 10 -10 16 -10 5 0 9 5 9 10 0 6 -7 10 -16 10 -8 0
-12 -4 -9 -10z"/>
<path d="M946 2134 c-9 -8 -13 -21 -9 -27 14 -22 11 -37 -5 -38 -10 0 -2 -7
16 -15 29 -13 36 -12 64 2 30 15 32 15 45 -2 10 -13 13 -14 13 -3 0 12 2 12
10 -1 7 -11 10 -11 10 -2 0 7 5 10 12 6 7 -4 8 -3 4 5 -4 6 -23 18 -42 26 -26
11 -34 20 -34 39 0 23 -4 26 -34 26 -19 0 -42 -7 -50 -16z"/>
<path d="M512 2131 c-23 -14 -10 -38 16 -32 20 5 21 8 10 23 -8 12 -18 15 -26
9z"/>
<path d="M2487 2129 c7 -7 15 -10 18 -7 3 3 -2 9 -12 12 -14 6 -15 5 -6 -5z"/>
<path d="M777 2105 c-14 -20 -15 -24 -2 -19 8 3 15 10 15 16 0 5 4 7 8 4 5 -3
9 1 9 9 0 21 -9 18 -30 -10z"/>
<path d="M1549 2111 c11 -7 10 -10 -4 -18 -16 -9 -15 -11 4 -16 15 -3 24 0 28
10 6 15 -12 33 -32 33 -5 0 -4 -4 4 -9z"/>
<path d="M1122 2106 c4 -5 3 -15 -3 -23 -9 -10 -8 -13 4 -13 24 0 29 16 9 31
-9 7 -14 9 -10 5z"/>
<path d="M2570 2096 c0 -9 7 -16 16 -16 17 0 14 22 -4 28 -7 2 -12 -3 -12 -12z"/>
<path d="M1720 2090 c0 -5 5 -10 10 -10 6 0 10 5 10 10 0 6 -4 10 -10 10 -5 0
-10 -4 -10 -10z"/>
<path d="M1513 2073 c7 -12 -16 -36 -26 -28 -4 3 -5 2 -2 -2 3 -4 11 -8 18 -9
7 -1 20 -5 30 -9 13 -6 16 -3 11 9 -3 9 -10 16 -16 16 -5 0 -7 4 -3 9 3 5 0
13 -6 17 -7 4 -9 3 -6 -3z"/>
<path d="M2071 2056 c-9 -11 -6 -16 18 -24 25 -9 29 -8 24 4 -3 8 -9 14 -15
14 -5 0 -6 5 -3 10 9 15 -11 12 -24 -4z"/>
<path d="M1577 2054 c-8 -8 1 -24 14 -24 5 0 9 7 9 15 0 15 -12 20 -23 9z"/>
<path d="M1745 2040 c3 -5 11 -10 16 -10 6 0 7 5 4 10 -3 6 -11 10 -16 10 -6
0 -7 -4 -4 -10z"/>
<path d="M1120 2030 c12 -9 10 -11 -11 -6 -30 6 -43 -2 -29 -19 10 -13 2 -55
-11 -55 -5 0 -9 -6 -9 -14 0 -8 -19 -27 -42 -43 -85 -57 -127 -88 -128 -94 0
-3 23 -11 50 -17 47 -11 53 -10 88 13 26 17 49 47 73 93 18 37 37 68 40 70 12
5 -7 75 -21 79 -13 4 -13 3 0 -7z m10 -55 c0 -8 -4 -15 -10 -15 -5 0 -10 7
-10 15 0 8 5 15 10 15 6 0 10 -7 10 -15z"/>
<path d="M2650 2030 c0 -5 7 -10 16 -10 8 0 12 5 9 10 -3 6 -10 10 -16 10 -5
0 -9 -4 -9 -10z"/>
<path d="M1476 2015 c4 -8 11 -15 16 -15 6 0 5 6 -2 15 -7 8 -14 15 -16 15 -2
0 -1 -7 2 -15z"/>
<path d="M1655 2020 c3 -5 14 -10 23 -10 15 0 15 2 2 10 -20 13 -33 13 -25 0z"/>
<path d="M2507 2019 c7 -7 15 -10 18 -7 3 3 -2 9 -12 12 -14 6 -15 5 -6 -5z"/>
<path d="M1039 2009 c-9 -5 -25 -10 -35 -12 -28 -6 -56 -18 -85 -38 -14 -10
-29 -15 -33 -12 -3 4 -13 -2 -21 -13 -14 -19 -15 -18 -21 4 -9 31 -36 28 -63
-8 -13 -19 -27 -28 -34 -23 -9 5 -9 3 0 -9 7 -8 10 -17 7 -20 -3 -3 6 -5 19
-4 14 0 23 4 20 9 -2 4 1 7 7 7 6 0 27 7 48 16 20 9 46 18 57 19 36 6 133 45
145 60 17 20 9 36 -11 24z"/>
<path d="M1166 2003 c-6 -14 -5 -15 5 -6 7 7 10 15 7 18 -3 3 -9 -2 -12 -12z"/>
<path d="M2708 1993 c6 -30 66 -108 90 -118 11 -4 10 1 -4 22 -10 16 -24 39
-31 54 -7 14 -23 35 -36 48 l-24 22 5 -28z"/>
<path d="M1273 1979 c-11 -28 -10 -31 14 -40 17 -6 30 -6 36 0 5 5 16 7 23 4
8 -3 14 0 14 7 0 8 -10 9 -28 5 -27 -6 -28 -4 -24 25 6 41 -20 41 -35 -1z"/>
<path d="M1610 2006 c0 -2 7 -6 15 -10 8 -3 15 -1 15 4 0 6 -7 10 -15 10 -8 0
-15 -2 -15 -4z"/>
<path d="M1443 1993 c4 -6 1 -13 -5 -16 -7 -2 -9 -8 -5 -13 4 -5 12 -2 17 5 6
11 9 10 11 -4 3 -11 14 -19 29 -20 14 -1 36 -5 50 -9 l25 -8 -22 20 c-12 12
-34 24 -50 28 -15 4 -34 12 -42 18 -11 8 -13 8 -8 -1z"/>
<path d="M1680 1990 c0 -5 5 -10 11 -10 5 0 7 5 4 10 -3 6 -8 10 -11 10 -2 0
-4 -4 -4 -10z"/>
<path d="M430 1979 c0 -5 5 -7 10 -4 6 3 10 8 10 11 0 2 -4 4 -10 4 -5 0 -10
-5 -10 -11z"/>
<path d="M1540 1984 c0 -19 27 -37 35 -24 4 6 4 14 1 17 -3 4 -6 0 -6 -7 0 -9
-5 -7 -15 6 -8 10 -15 14 -15 8z"/>
<path d="M475 1970 c-3 -5 1 -10 10 -10 9 0 13 5 10 10 -3 6 -8 10 -10 10 -2
0 -7 -4 -10 -10z"/>
<path d="M2279 1927 c-24 -19 -31 -47 -13 -47 9 0 33 -10 54 -21 21 -12 45
-19 54 -16 17 7 22 47 6 47 -6 0 -20 11 -32 25 -24 27 -44 31 -69 12z"/>
<path d="M397 1909 c4 -16 8 -17 14 -7 13 19 11 28 -5 28 -9 0 -12 -7 -9 -21z"/>
<path d="M1425 1903 c4 -10 8 -23 8 -30 0 -6 6 -9 14 -6 7 3 20 0 27 -6 12
-10 13 -8 9 8 -3 12 -9 19 -13 16 -5 -3 -11 4 -15 15 -3 11 -13 20 -22 20 -11
0 -13 -5 -8 -17z"/>
<path d="M1695 1911 c-7 -12 12 -24 25 -16 11 7 4 25 -10 25 -5 0 -11 -4 -15
-9z"/>
<path d="M450 1895 c-7 -8 -9 -15 -6 -15 4 0 14 7 22 15 9 8 11 15 6 15 -5 0
-15 -7 -22 -15z"/>
<path d="M516 1903 c-3 -3 1 -11 10 -17 13 -10 10 -11 -13 -10 -31 2 -73 -30
-73 -56 0 -9 -7 -31 -16 -48 -8 -18 -12 -37 -8 -43 5 -8 3 -9 -6 -4 -9 5 -10
2 -5 -15 6 -19 4 -21 -13 -15 -18 5 -22 1 -27 -29 -4 -19 -13 -37 -21 -40 -8
-3 -13 -2 -11 2 1 4 -6 18 -16 32 -14 20 -17 21 -17 7 0 -10 -3 -16 -7 -14 -5
3 -8 -5 -8 -18 0 -13 2 -23 5 -23 34 2 42 -4 37 -28 -4 -20 1 -28 22 -37 14
-6 29 -16 33 -22 12 -15 10 -77 -2 -70 -5 3 -10 20 -10 37 0 26 -2 29 -15 18
-9 -8 -12 -17 -7 -24 5 -6 12 -23 16 -38 6 -28 0 -33 -33 -28 -12 1 -13 -1 -3
-13 7 -8 11 -20 10 -27 -2 -7 3 -15 11 -17 9 -4 11 0 6 16 -4 13 -2 21 5 21 6
0 9 -4 5 -9 -3 -5 2 -17 12 -26 16 -16 17 -16 24 1 7 16 8 17 8 2 1 -9 -3 -20
-9 -23 -5 -3 -10 -12 -9 -18 0 -9 2 -8 6 1 2 6 9 9 14 6 6 -3 6 -11 -2 -20 -6
-7 -15 -11 -20 -8 -5 3 -9 -1 -9 -10 0 -8 -6 -16 -12 -19 -10 -3 -10 -9 -2
-23 16 -27 39 -29 42 -4 4 43 6 49 19 54 9 4 13 -3 13 -20 0 -17 4 -23 12 -18
8 5 9 0 6 -14 -4 -12 -2 -20 3 -16 5 3 9 -4 9 -15 0 -24 -15 -28 -27 -6 -5 9
-13 11 -22 6 -11 -7 -8 -12 10 -22 13 -7 30 -19 37 -28 8 -9 11 -10 7 -3 -3 6
0 12 7 12 8 0 18 -14 23 -32 10 -31 21 -40 60 -53 15 -5 16 -8 6 -14 -10 -6
-9 -10 4 -14 18 -8 39 32 24 47 -5 6 -2 18 9 29 16 19 16 20 -5 8 -12 -6 -35
-11 -52 -11 -43 0 -42 34 2 60 40 25 40 25 68 -5 13 -13 27 -25 30 -25 13 0
64 55 64 69 0 11 11 17 34 19 49 5 60 -11 33 -48 -18 -24 -19 -30 -7 -30 8 0
15 -6 15 -12 0 -7 9 -2 20 12 16 20 22 22 29 11 10 -16 -7 -53 -21 -45 -12 7
-10 -11 4 -41 6 -14 17 -24 24 -21 7 3 15 -2 18 -10 4 -10 1 -13 -7 -9 -6 4
-4 0 6 -8 9 -8 17 -19 17 -24 0 -6 7 -17 17 -24 13 -11 17 -11 21 -1 3 10 7
10 18 1 8 -6 23 -9 34 -6 11 3 18 1 14 -4 -3 -5 2 -9 11 -9 11 0 15 -5 11 -15
-4 -10 1 -15 15 -15 20 0 22 3 34 55 7 27 8 28 15 10 4 -11 4 -25 -1 -31 -14
-18 15 -38 30 -21 6 8 7 17 3 21 -4 5 0 7 8 6 33 -5 42 0 37 20 -3 11 -1 20 4
20 5 0 9 14 9 32 0 31 0 31 21 12 11 -10 18 -25 16 -34 -3 -11 4 -15 27 -14
17 0 29 3 27 5 -9 8 20 49 34 49 8 0 15 4 15 10 0 5 -7 7 -15 4 -8 -4 -15 -1
-15 5 0 6 9 11 20 11 11 0 20 5 20 11 0 5 4 8 9 4 21 -13 19 14 -4 45 -43 58
-62 72 -85 60 -21 -11 -24 -8 -20 23 1 10 -4 25 -11 33 -10 13 -15 12 -37 -8
-14 -13 -22 -18 -18 -11 3 6 2 14 -4 18 -12 7 -14 26 -2 24 17 -3 32 2 32 10
0 6 -8 8 -18 6 -15 -3 -18 4 -18 45 l0 48 30 -9 c37 -11 89 -2 83 14 -4 13
-41 14 -69 2 -16 -6 -18 -1 -19 41 -1 27 -3 41 -6 32 -2 -10 -10 -15 -19 -11
-7 3 -12 9 -9 13 8 12 -6 41 -16 34 -5 -3 -4 7 1 21 11 29 -1 44 -62 82 -16
10 -28 21 -28 25 0 12 -73 40 -92 34 -10 -2 -21 0 -24 5 -3 6 -20 1 -40 -10
l-34 -20 16 24 c9 14 22 25 29 25 22 0 24 26 2 27 -11 1 -25 9 -29 18 -5 8
-17 15 -26 15 -14 0 -15 -2 -3 -9 12 -8 9 -11 -13 -17 -19 -5 -31 -2 -37 7 -7
11 -9 11 -9 1 0 -7 -4 -10 -10 -7 -5 3 -21 -2 -36 -11 -22 -15 -27 -15 -35 -3
-5 8 -9 9 -9 3 0 -6 -6 -11 -12 -12 -7 0 -23 -4 -35 -7 -30 -9 -30 7 1 48 41
56 42 62 10 44 -61 -33 -125 -43 -109 -17 3 5 1 20 -5 35 -8 22 -7 25 6 23 20
-4 28 28 9 36 -7 2 -16 2 -19 -1z m-33 -45 c-6 -7 -16 -30 -22 -50 -7 -21 -17
-41 -23 -44 -6 -4 -6 1 1 14 6 11 11 29 11 38 0 10 7 26 17 36 18 20 31 25 16
6z m-68 -238 c3 -6 -1 -7 -9 -4 -18 7 -21 14 -7 14 6 0 13 -4 16 -10z m305
-81 c0 -11 -4 -18 -9 -14 -5 3 -11 -6 -13 -20 -4 -33 -22 -37 -26 -7 -4 25 15
55 29 46 5 -3 9 0 9 5 0 6 2 11 5 11 3 0 5 -9 5 -21z m153 -17 c-3 -13 -11
-21 -17 -19 -6 2 -22 -4 -35 -14 -28 -22 -39 -18 -37 13 1 20 7 23 41 24 21 1
41 6 43 13 7 21 11 6 5 -17z m-107 2 c-3 -9 -6 -18 -6 -20 0 -2 -7 -4 -15 -4
-8 0 -15 -5 -15 -12 0 -9 -3 -9 -12 1 -11 10 -8 16 11 32 28 23 45 25 37 3z
m312 5 c30 -10 31 -12 18 -37 -18 -36 -11 -55 15 -42 13 7 19 7 19 0 0 -5 -7
-10 -15 -10 -17 0 -20 -16 -5 -25 6 -3 10 -16 10 -28 -1 -19 -3 -18 -15 8 -18
39 -39 65 -53 65 -8 0 -9 -8 -2 -24 7 -19 5 -26 -7 -30 -9 -4 -17 -5 -18 -4
-1 2 -9 14 -18 27 -15 23 -15 23 -22 -23 -5 -33 -3 -51 6 -63 8 -10 -6 -1 -30
20 -25 20 -55 37 -68 37 -13 0 -22 -3 -19 -8 4 -6 -29 -8 -71 -3 -7 0 -13 10
-13 20 0 15 5 18 23 14 22 -4 22 -4 -1 10 l-24 14 30 12 c17 7 36 10 41 6 6
-3 14 1 17 10 5 11 10 13 19 5 9 -8 18 -6 31 7 10 10 18 17 18 15 1 -2 14 2
30 8 16 6 31 8 34 6 2 -3 11 1 19 9 17 18 13 18 51 4z m-614 -25 c9 -3 16 -13
16 -21 0 -12 -2 -12 -16 1 -8 9 -20 13 -26 10 -7 -4 -8 -2 -4 4 8 14 9 14 30
6z m76 -60 c0 -2 -7 -4 -15 -4 -8 0 -15 4 -15 10 0 5 7 7 15 4 8 -4 15 -8 15
-10z m200 -4 c0 -5 -5 -10 -11 -10 -5 0 -7 5 -4 10 3 6 8 10 11 10 2 0 4 -4 4
-10z m-353 -52 c-3 -8 -6 -5 -6 6 -1 11 2 17 5 13 3 -3 4 -12 1 -19z m243 2
c0 -5 6 -9 13 -7 6 1 11 -5 9 -14 -1 -10 7 -20 20 -24 18 -6 20 -8 7 -12 -18
-4 -33 -44 -21 -53 11 -8 12 -80 1 -80 -6 0 -7 5 -4 10 4 6 -5 10 -19 10 -14
0 -26 5 -26 12 0 6 -7 19 -16 29 -10 11 -13 23 -8 31 5 7 9 22 11 33 1 11 -1
14 -3 8 -8 -18 -25 -16 -18 2 6 14 -7 20 -30 16 -5 -1 -3 5 4 14 7 9 19 14 26
11 7 -3 18 2 24 10 14 16 30 19 30 4z m381 -23 c-1 -12 -15 -9 -19 4 -3 6 1
10 8 8 6 -3 11 -8 11 -12z m-556 -15 c-3 -3 -11 0 -18 7 -9 10 -8 11 6 5 10
-3 15 -9 12 -12z m421 6 c5 -7 2 -9 -7 -4 -8 4 -5 -1 6 -11 21 -19 30 -73 12
-73 -6 0 -8 3 -4 6 3 3 -5 17 -19 31 -24 24 -30 44 -17 56 10 10 21 8 29 -5z
m-395 -35 c13 -16 12 -17 -3 -4 -10 7 -18 15 -18 17 0 8 8 3 21 -13z m310 -26
c-10 -9 -11 -8 -5 6 3 10 9 15 12 12 3 -3 0 -11 -7 -18z m-231 -7 c-20 -13
-33 -13 -25 0 3 6 14 10 23 10 15 0 15 -2 2 -10z m134 -5 c15 -11 16 -17 8
-28 -7 -8 -9 -17 -5 -20 3 -4 1 -7 -5 -7 -7 0 -13 6 -14 13 0 6 -2 17 -2 22
-1 6 -5 16 -9 23 -11 16 3 15 27 -3z m176 -14 c0 -17 -18 -21 -24 -6 -3 9 0
15 9 15 8 0 15 -4 15 -9z m190 -5 c0 -3 -4 -8 -10 -11 -5 -3 -10 -1 -10 4 0 6
5 11 10 11 6 0 10 -2 10 -4z m-542 -29 c2 -9 -1 -17 -7 -17 -6 0 -11 6 -11 14
0 8 -6 17 -12 20 -7 3 -4 5 7 3 11 -1 21 -10 23 -20z m421 -6 c6 -10 10 -35 9
-56 -1 -22 4 -40 13 -46 20 -13 33 -11 22 4 -17 22 -22 46 -11 53 6 4 8 3 4
-4 -3 -6 2 -13 13 -17 10 -3 27 -15 37 -27 11 -12 13 -18 5 -13 -9 5 -19 1
-30 -13 -15 -19 -18 -20 -53 -5 -25 10 -38 22 -38 34 0 10 -8 23 -17 28 -10 6
-12 11 -5 11 6 0 12 7 12 15 0 18 12 19 29 3 10 -11 11 -9 5 7 -4 11 -11 26
-17 33 -6 8 -6 12 1 12 6 0 16 -8 21 -19z m184 -24 c26 -10 32 -35 12 -57 -22
-25 -42 -26 -47 -2 -5 26 3 86 11 75 3 -5 14 -12 24 -16z m-267 -89 c4 -7 3
-8 -4 -4 -7 4 -12 2 -12 -5 0 -7 -3 -10 -6 -6 -6 5 3 27 11 27 2 0 7 -5 11
-12z m289 -8 c7 -23 -2 -43 -16 -35 -12 8 -12 55 0 55 5 0 12 -9 16 -20z m75
-15 c0 -8 -6 -15 -13 -15 -8 0 -14 7 -14 15 0 8 6 15 14 15 7 0 13 -7 13 -15z
m-162 -23 c-4 -21 -32 -22 -36 -2 -2 10 5 16 18 17 15 1 20 -3 18 -15z m-14
-47 c-4 -8 -8 -15 -10 -15 -2 0 -4 7 -4 15 0 8 4 15 10 15 5 0 7 -7 4 -15z"/>
<path d="M938 1413 c7 -3 16 -2 19 1 4 3 -2 6 -13 5 -11 0 -14 -3 -6 -6z"/>
<path d="M1775 1880 c-17 -19 -17 -20 -1 -20 9 0 15 4 11 9 -3 5 -1 12 4 15 5
4 12 -2 14 -11 4 -14 5 -13 6 5 1 27 -10 28 -34 2z"/>
<path d="M2201 1881 c-7 -12 -7 -22 -2 -26 5 -3 13 4 16 16 9 28 -1 36 -14 10z"/>
<path d="M1610 1881 c-33 -9 -37 -42 -9 -67 12 -10 19 -13 14 -5 -6 11 -3 13
13 9 12 -4 20 -2 17 2 -3 5 -1 11 5 15 27 17 -6 54 -40 46z"/>
<path d="M310 1861 c-13 -25 -13 -44 0 -36 6 3 10 15 10 26 0 13 4 18 12 13 7
-4 8 -3 4 4 -10 16 -14 15 -26 -7z"/>
<path d="M1368 1857 c-25 -16 -34 -27 -29 -36 12 -18 86 -27 96 -11 5 8 4 11
-3 6 -6 -3 -13 -2 -17 4 -3 5 1 10 9 10 8 0 18 5 22 12 5 7 2 9 -9 5 -9 -3
-21 1 -29 11 -9 11 -10 14 0 8 6 -4 12 -2 12 3 0 16 -10 13 -52 -12z"/>
<path d="M357 1856 c-17 -14 -24 -46 -8 -46 4 0 6 -16 4 -36 -3 -33 -2 -34 17
-24 11 6 20 21 20 33 0 18 -2 19 -10 7 -8 -12 -10 -11 -10 8 0 12 -5 22 -12
22 -6 0 -3 9 7 20 22 24 17 34 -8 16z"/>
<path d="M1261 1863 c-1 -17 11 -22 34 -12 19 9 19 9 -2 5 -12 -2 -24 1 -27 8
-3 8 -5 8 -5 -1z"/>
<path d="M2781 1838 c12 -22 11 -22 -8 -5 -11 9 -23 14 -26 10 -10 -9 32 -36
60 -39 18 -2 22 2 20 18 -4 21 -23 38 -45 38 -10 0 -10 -5 -1 -22z"/>
<path d="M1876 1835 c-19 -14 -18 -15 13 -15 21 0 31 4 29 12 -6 18 -21 19
-42 3z"/>
<path d="M2230 1833 c0 -10 13 -27 30 -36 25 -15 29 -16 24 -3 -3 9 -10 13
-15 10 -5 -3 -9 1 -9 9 0 8 -7 20 -15 27 -12 10 -15 9 -15 -7z"/>
<path d="M2010 1833 c0 -5 5 -15 10 -23 8 -12 10 -11 10 8 0 12 -4 22 -10 22
-5 0 -10 -3 -10 -7z"/>
<path d="M385 1820 c-3 -5 -1 -10 4 -10 6 0 11 5 11 10 0 6 -2 10 -4 10 -3 0
-8 -4 -11 -10z"/>
<path d="M1220 1765 c-8 -33 -23 -75 -33 -93 -13 -21 -17 -41 -13 -60 5 -20 4
-23 -4 -12 -5 8 -10 12 -10 8 0 -3 -2 -13 -5 -20 -3 -8 9 -32 26 -54 18 -21
29 -31 26 -21 -7 20 8 24 16 3 3 -7 18 -13 33 -13 l28 0 -26 22 c-24 21 -25
23 -11 58 9 20 18 37 23 37 15 0 60 46 60 63 0 10 5 14 15 11 8 -4 15 -1 15 6
0 6 -5 8 -10 5 -6 -4 -16 8 -22 26 -10 29 -12 31 -20 13 -6 -14 -7 -12 -3 9 5
23 2 27 -19 27 -14 0 -28 -6 -33 -12 -5 -9 -10 -1 -13 22 -5 34 -6 33 -20 -25z
m100 -69 c0 -3 -4 -8 -10 -11 -5 -3 -10 -1 -10 4 0 6 5 11 10 11 6 0 10 -2 10
-4z"/>
<path d="M1492 1804 c10 -10 20 -15 24 -12 3 4 -5 12 -18 18 -22 12 -22 12 -6
-6z"/>
<path d="M1566 1801 c-3 -5 1 -12 10 -15 22 -8 25 -4 9 11 -8 7 -16 9 -19 4z"/>
<path d="M290 1759 c0 -24 4 -38 10 -34 6 3 10 1 10 -6 0 -10 3 -10 11 -2 7 7
8 17 3 25 -5 7 -9 18 -10 23 0 6 -2 16 -2 23 -1 6 -6 12 -12 12 -5 0 -10 -18
-10 -41z"/>
<path d="M1541 1766 c-10 -12 -8 -17 9 -26 12 -6 29 -9 38 -5 9 3 13 3 9 -1
-4 -4 -2 -13 3 -19 7 -9 6 -16 -5 -25 -11 -9 -15 -9 -15 -1 0 7 -4 10 -10 6
-5 -3 -7 -11 -5 -18 2 -7 -10 -23 -28 -36 -18 -14 -29 -21 -25 -17 4 4 3 18
-2 31 -6 16 -4 29 5 41 19 26 19 39 -1 23 -13 -10 -17 -10 -24 1 -6 10 -12 8
-26 -8 -10 -12 -21 -19 -25 -16 -5 2 -16 -7 -25 -21 -15 -23 -15 -27 -1 -43
33 -37 23 -82 -19 -82 -14 0 -22 -4 -19 -10 3 -5 0 -10 -7 -10 -8 0 -18 -15
-23 -32 -8 -27 -16 -34 -45 -39 -19 -4 -30 -7 -24 -8 13 -1 27 -38 24 -60 -1
-9 4 -12 16 -7 9 3 22 2 29 -4 9 -8 15 -8 20 0 3 5 0 13 -9 16 -8 3 -16 11
-19 17 -3 8 16 13 59 15 l64 3 -11 -28 c-7 -20 -7 -29 1 -31 7 -3 4 -9 -7 -17
-16 -12 -15 -13 10 -11 44 5 76 59 42 72 -15 6 -16 29 -2 52 5 6 6 16 2 21 -7
12 14 25 40 26 13 0 21 8 23 23 4 25 27 30 36 6 3 -9 6 -31 6 -50 0 -26 -3
-33 -12 -27 -7 4 -24 8 -38 8 -25 0 -26 -2 -25 -54 2 -56 9 -68 34 -52 11 7
12 13 3 24 -9 11 -7 18 9 35 23 26 29 27 29 7 0 -8 -7 -15 -15 -15 -8 0 -15
-8 -15 -17 0 -15 2 -16 10 -3 5 8 10 11 10 6 0 -5 6 -3 14 3 12 10 13 8 9 -8
-6 -24 1 -25 48 -10 50 17 62 29 48 46 -9 11 -9 12 3 8 20 -8 72 60 63 83 -5
14 -14 9 -50 -30 -29 -33 -45 -43 -48 -34 -3 8 8 27 25 42 16 16 34 37 39 46
7 14 5 16 -12 13 -17 -3 -19 -2 -9 10 10 12 9 16 -3 21 -9 3 -21 3 -26 -1 -6
-3 -8 0 -5 8 3 8 -1 19 -9 26 -11 9 -17 8 -28 -6 -11 -13 -11 -15 -1 -9 11 7
11 4 0 -13 -13 -21 -13 -21 -19 6 -4 15 -7 24 -8 18 -1 -5 -6 -2 -12 8 -11 18
-3 41 11 32 5 -3 25 4 44 16 38 22 44 29 24 25 -33 -6 -58 -18 -58 -29 0 -7
-4 -7 -12 2 -11 10 -10 15 5 25 9 7 17 20 17 29 0 11 5 14 18 10 15 -6 15 -5
3 11 -9 10 -17 13 -21 7 -7 -12 -63 -4 -68 10 -5 13 -18 11 -31 -5z m-44 -152
c-3 -3 -12 -4 -19 -1 -8 3 -5 6 6 6 11 1 17 -2 13 -5z m97 -29 c-4 -8 -7 -15
-9 -15 -2 0 -5 7 -9 15 -3 9 0 15 9 15 9 0 12 -6 9 -15z m-255 -138 c-2 -1
-13 -9 -24 -17 -19 -14 -19 -14 -6 3 7 9 18 17 24 17 6 0 8 -1 6 -3z m315 -6
c3 -5 -1 -11 -9 -14 -9 -4 -12 -1 -8 9 6 16 10 17 17 5z"/>
<path d="M1986 1772 c-7 -11 52 -28 61 -18 9 8 2 13 -28 21 -15 4 -30 2 -33
-3z"/>
<path d="M1690 1755 c0 -8 7 -15 16 -15 14 0 14 3 4 15 -7 8 -14 15 -16 15 -2
0 -4 -7 -4 -15z"/>
<path d="M1748 1759 c-24 -14 -23 -28 2 -22 11 3 20 10 20 15 0 5 5 6 12 2 7
-4 8 -3 4 4 -9 14 -16 15 -38 1z"/>
<path d="M2360 1766 c0 -2 8 -10 18 -17 15 -13 16 -12 3 4 -13 16 -21 21 -21
13z"/>
<path d="M2835 1745 c4 -16 8 -50 10 -74 2 -23 11 -64 22 -90 l18 -46 5 70 c6
83 -2 114 -37 146 l-26 24 8 -30z"/>
<path d="M1387 1747 c-3 -7 4 -19 15 -26 17 -11 18 -10 9 7 -6 11 -7 22 -4 26
3 3 2 6 -4 6 -6 0 -13 -6 -16 -13z"/>
<path d="M1345 1740 c-3 -5 -1 -10 4 -10 6 0 11 5 11 10 0 6 -2 10 -4 10 -3 0
-8 -4 -11 -10z"/>
<path d="M1705 1720 c3 -5 11 -10 16 -10 6 0 7 5 4 10 -3 6 -11 10 -16 10 -6
0 -7 -4 -4 -10z"/>
<path d="M1356 1651 c-3 -5 1 -12 10 -15 8 -3 13 -9 11 -14 -3 -4 2 -16 10
-27 15 -19 15 -19 8 4 -6 20 -4 23 9 18 15 -6 15 -4 -1 18 -19 25 -38 32 -47
16z"/>
<path d="M2816 1592 c-3 -6 -1 -14 5 -17 14 -9 20 -2 10 14 -6 8 -11 9 -15 3z"/>
<path d="M1952 1558 c-6 -7 -28 -22 -49 -33 -21 -11 -48 -30 -61 -43 l-22 -23
22 7 c13 4 38 10 56 15 42 9 82 36 82 54 0 8 0 18 1 22 1 13 -18 14 -29 1z"/>
<path d="M1260 1539 c0 -5 5 -7 10 -4 6 3 10 8 10 11 0 2 -4 4 -10 4 -5 0 -10
-5 -10 -11z"/>
<path d="M1840 1530 c0 -5 5 -10 11 -10 5 0 7 5 4 10 -3 6 -8 10 -11 10 -2 0
-4 -4 -4 -10z"/>
<path d="M2094 1501 c11 -17 -6 -43 -22 -36 -9 3 -13 3 -9 -1 4 -4 2 -13 -4
-20 -19 -23 -2 -64 25 -64 33 0 50 23 37 48 -8 15 -7 23 6 33 12 10 15 10 9 2
-5 -9 0 -13 13 -13 24 0 26 9 9 32 -14 17 -74 35 -64 19z"/>
<path d="M2367 1476 c-4 -10 -1 -13 9 -9 15 6 19 23 5 23 -5 0 -11 -7 -14 -14z"/>
<path d="M2773 1451 c-21 -52 -23 -77 -6 -123 17 -49 26 -57 39 -36 4 7 3 8
-4 4 -17 -10 -15 11 4 39 9 14 21 22 26 19 6 -4 5 2 -1 14 -6 11 -11 30 -11
42 0 12 -8 32 -18 45 l-18 23 -11 -27z"/>
<path d="M1981 1451 l-24 -6 27 -13 c36 -16 41 -15 43 8 2 21 -6 23 -46 11z"/>
<path d="M2213 1445 c-8 -9 -9 -15 0 -24 15 -15 37 -14 37 3 0 22 -23 36 -37
21z"/>
<path d="M2854 1436 c-3 -8 -4 -23 -2 -33 3 -11 6 -6 9 15 6 34 2 42 -7 18z"/>
<path d="M1943 1428 c1 -6 -4 -13 -12 -16 -9 -3 -11 0 -6 8 6 9 3 9 -14 1 -11
-7 -21 -14 -21 -17 0 -3 5 -2 10 1 6 3 10 3 10 0 0 -10 -53 -50 -62 -48 -4 2
-2 -8 4 -22 6 -15 23 -28 37 -31 14 -3 34 -10 44 -15 10 -5 22 -7 28 -3 5 3
16 0 24 -6 11 -9 19 -10 28 -1 8 6 17 8 21 4 14 -14 38 -12 32 4 -5 11 -2 14
11 9 10 -4 3 7 -16 24 -18 16 -42 30 -51 30 -10 0 -24 8 -31 17 -10 11 -10 14
-1 9 6 -4 12 -2 12 3 0 6 -4 11 -10 11 -5 0 -9 3 -9 8 3 18 -2 30 -16 36 -8 3
-14 0 -12 -6z"/>
<path d="M1155 1390 c3 -5 8 -10 11 -10 2 0 4 5 4 10 0 6 -5 10 -11 10 -5 0
-7 -4 -4 -10z"/>
<path d="M1860 1390 c-9 -6 -10 -10 -3 -10 6 0 15 5 18 10 8 12 4 12 -15 0z"/>
<path d="M2480 1380 c6 -11 13 -20 16 -20 2 0 0 9 -6 20 -6 11 -13 20 -16 20
-2 0 0 -9 6 -20z"/>
<path d="M1580 1380 c0 -5 5 -10 10 -10 6 0 10 5 10 10 0 6 -4 10 -10 10 -5 0
-10 -4 -10 -10z"/>
<path d="M1492 1351 c-15 -13 -20 -25 -15 -38 6 -15 4 -16 -9 -6 -8 7 -18 10
-21 7 -3 -4 -13 0 -21 7 -47 42 -46 42 -70 20 -12 -12 -28 -21 -34 -21 -7 0
-12 -6 -12 -14 0 -10 7 -12 22 -8 14 3 19 2 14 -6 -12 -19 5 -38 18 -21 6 8
21 19 32 25 19 11 20 9 16 -17 -3 -22 0 -29 12 -29 9 0 16 6 16 13 0 8 4 7 10
-3 8 -13 10 -12 10 3 0 21 23 22 40 2 9 -10 9 -15 1 -15 -6 0 -11 -5 -11 -11
0 -6 7 -9 15 -5 9 3 15 -1 15 -11 0 -35 90 -160 108 -149 17 10 15 53 -3 60
-19 7 -12 58 16 114 25 53 8 77 -55 77 -25 0 -46 4 -46 8 0 5 -8 1 -17 -9 -17
-17 -18 -17 -21 0 -2 9 2 23 8 31 17 20 10 18 -18 -4z"/>
<path d="M366 1341 c-4 -7 -5 -15 -2 -18 9 -9 19 4 14 18 -4 11 -6 11 -12 0z"/>
<path d="M1210 1320 c0 -11 4 -20 8 -20 4 0 8 9 9 20 1 11 -2 20 -8 20 -5 0
-9 -9 -9 -20z"/>
<path d="M1275 1301 c-6 -11 9 -23 19 -14 9 9 7 23 -3 23 -6 0 -12 -4 -16 -9z"/>
<path d="M1236 1291 c-4 -7 -5 -15 -2 -18 9 -9 19 4 14 18 -4 11 -6 11 -12 0z"/>
<path d="M2236 1274 c-12 -48 14 -44 29 4 4 16 2 22 -8 22 -8 0 -18 -12 -21
-26z"/>
<path d="M1783 1234 c-4 -10 1 -20 11 -26 15 -9 16 -12 3 -31 -20 -32 -4 -90
23 -82 11 4 20 2 20 -3 0 -5 6 -9 13 -10 6 -1 26 -4 43 -8 33 -6 42 1 49 35 3
15 -2 19 -20 16 -14 -1 -22 2 -19 6 3 5 1 9 -5 9 -6 0 -8 7 -5 15 4 9 0 15
-10 15 -9 0 -16 3 -16 8 0 4 -14 15 -30 24 -20 11 -28 22 -24 32 4 11 0 16
-10 16 -9 0 -19 -7 -23 -16z"/>
<path d="M1395 1230 c3 -5 11 -10 16 -10 6 0 7 5 4 10 -3 6 -11 10 -16 10 -6
0 -7 -4 -4 -10z"/>
<path d="M2120 1220 c0 -5 4 -10 9 -10 6 0 13 5 16 10 3 6 -1 10 -9 10 -9 0
-16 -4 -16 -10z"/>
<path d="M821 1174 c0 -11 3 -14 6 -6 3 7 2 16 -1 19 -3 4 -6 -2 -5 -13z"/>
<path d="M1637 1183 c-4 -3 -7 -13 -7 -22 1 -13 3 -13 11 2 11 19 8 33 -4 20z"/>
<path d="M1488 1148 c-22 -17 -13 -68 12 -68 10 0 23 7 30 15 8 9 9 15 2 15
-6 0 -14 -5 -18 -11 -4 -8 -9 -7 -15 2 -15 23 -10 39 14 49 13 5 16 9 6 9 -8
1 -23 -5 -31 -11z"/>
<path d="M1969 1123 c-13 -16 -12 -17 4 -4 16 13 21 21 13 21 -2 0 -10 -8 -17
-17z"/>
<path d="M1360 1110 c0 -5 5 -10 10 -10 6 0 10 5 10 10 0 6 -4 10 -10 10 -5 0
-10 -4 -10 -10z"/>
<path d="M2666 1112 c-10 -17 4 -56 15 -45 6 6 6 19 1 33 -6 15 -11 19 -16 12z"/>
<path d="M2701 1104 c0 -11 3 -14 6 -6 3 7 2 16 -1 19 -3 4 -6 -2 -5 -13z"/>
<path d="M2033 1093 c-18 -9 -33 -20 -33 -23 0 -9 52 -34 67 -31 6 1 14 -3 18
-8 3 -6 12 -8 19 -5 11 4 9 14 -8 45 -24 44 -20 43 -63 22z"/>
<path d="M530 1083 c0 -5 5 -15 10 -23 8 -12 10 -11 10 8 0 12 -4 22 -10 22
-5 0 -10 -3 -10 -7z"/>
<path d="M635 1064 c21 -15 49 -19 41 -5 -3 5 -18 11 -33 14 -26 5 -26 4 -8
-9z"/>
<path d="M1303 1073 c4 -6 -5 -15 -18 -21 -17 -8 -25 -20 -25 -36 0 -29 -11
-39 -34 -30 -15 6 -15 8 1 20 17 14 16 14 -7 12 -14 -1 -31 1 -38 5 -14 10
-27 -16 -19 -37 4 -10 0 -14 -13 -11 -13 3 -17 -1 -13 -11 5 -13 19 -18 51
-17 6 1 12 -5 12 -13 0 -18 17 -26 64 -30 29 -3 37 -1 26 6 -13 8 -13 10 2 10
11 0 15 5 12 15 -4 8 -9 13 -13 10 -4 -2 -8 1 -8 8 0 7 -4 24 -7 38 -6 20 -3
28 9 33 26 9 37 -3 30 -34 -7 -30 11 -52 21 -26 3 9 17 16 30 16 22 0 32 18
18 33 -10 10 -34 -4 -28 -17 3 -6 -2 -2 -10 8 -9 11 -17 26 -17 33 -1 7 -2 18
-3 25 0 6 -7 13 -15 16 -8 3 -11 0 -8 -5z"/>
<path d="M2635 1071 c-3 -5 -1 -12 5 -16 5 -3 10 1 10 9 0 18 -6 21 -15 7z"/>
<path d="M1451 1034 c0 -11 3 -14 6 -6 3 7 2 16 -1 19 -3 4 -6 -2 -5 -13z"/>
<path d="M2520 1035 c0 -9 7 -18 15 -22 14 -5 14 -8 -1 -24 -18 -20 -13 -49
10 -49 9 0 13 -10 11 -32 -2 -18 -7 -32 -12 -31 -5 1 -10 -13 -10 -32 0 -37
-17 -65 -40 -65 -8 0 -13 -5 -11 -12 9 -26 26 -16 58 34 19 29 46 69 61 88 15
19 29 51 31 70 1 19 10 40 18 47 8 6 12 15 7 19 -4 4 -19 -6 -33 -24 -30 -36
-54 -32 -54 8 0 16 -7 30 -16 34 -25 10 -34 7 -34 -9z"/>
<path d="M1945 1030 c-3 -5 1 -10 10 -10 9 0 13 5 10 10 -3 6 -8 10 -10 10 -2
0 -7 -4 -10 -10z"/>
<path d="M2580 1024 c0 -8 5 -12 10 -9 6 3 10 10 10 16 0 5 -4 9 -10 9 -5 0
-10 -7 -10 -16z"/>
<path d="M1405 1000 c3 -5 8 -10 11 -10 2 0 4 5 4 10 0 6 -5 10 -11 10 -5 0
-7 -4 -4 -10z"/>
<path d="M640 940 c0 -4 9 -15 19 -27 10 -11 26 -33 34 -50 9 -16 24 -36 33
-44 11 -9 15 -9 10 -1 -4 7 -1 12 8 12 9 0 16 -6 16 -13 0 -8 32 -28 70 -45
57 -26 73 -38 81 -62 7 -18 20 -32 32 -34 36 -8 103 -15 85 -10 -10 3 -18 10
-18 15 0 12 27 12 35 -1 3 -5 15 -10 26 -10 16 0 19 4 13 23 -9 29 -14 34 -22
21 -4 -5 -19 -10 -34 -9 -29 0 -36 9 -17 20 13 9 28 47 22 58 -2 4 -13 2 -23
-3 -16 -9 -18 -8 -13 6 5 14 3 15 -15 5 -12 -7 -22 -16 -22 -21 0 -12 -72 -5
-101 10 -29 16 -50 41 -45 56 2 6 -14 11 -38 13 -22 1 -52 10 -66 19 l-25 17
28 3 c15 2 27 7 27 12 0 5 -13 7 -30 4 -27 -6 -30 -4 -30 18 0 17 -6 24 -20
24 -11 0 -20 -3 -20 -6z"/>
<path d="M725 940 c3 -5 8 -10 11 -10 2 0 4 5 4 10 0 6 -5 10 -11 10 -5 0 -7
-4 -4 -10z"/>
<path d="M2445 941 c5 -9 2 -19 -10 -28 -18 -13 -18 -13 0 -27 11 -8 23 -12
27 -10 14 9 8 51 -9 65 -14 12 -16 12 -8 0z"/>
<path d="M2375 910 c3 -5 8 -10 11 -10 2 0 4 5 4 10 0 6 -5 10 -11 10 -5 0 -7
-4 -4 -10z"/>
<path d="M2508 889 c4 -26 6 -29 14 -15 10 18 4 46 -10 46 -5 0 -6 -14 -4 -31z"/>
<path d="M824 888 c-3 -4 4 -8 15 -8 11 0 22 4 26 9 3 6 -4 9 -16 8 -11 -1
-23 -5 -25 -9z"/>
<path d="M1190 879 c0 -5 5 -7 10 -4 6 3 10 8 10 11 0 2 -4 4 -10 4 -5 0 -10
-5 -10 -11z"/>
<path d="M1247 883 c-4 -3 -7 -11 -7 -17 0 -6 5 -5 12 2 6 6 9 14 7 17 -3 3
-9 2 -12 -2z"/>
<path d="M1250 831 c0 -6 7 -11 16 -11 8 0 12 -4 9 -10 -3 -5 -1 -10 5 -10 18
0 7 34 -13 38 -9 2 -17 -1 -17 -7z"/>
<path d="M2498 829 c-10 -5 -18 -14 -18 -19 0 -13 38 0 44 16 6 16 -2 17 -26
3z"/>
<path d="M1110 821 c0 -6 4 -13 10 -16 6 -3 7 1 4 9 -7 18 -14 21 -14 7z"/>
<path d="M2276 821 c-4 -7 -5 -15 -2 -18 9 -9 19 4 14 18 -4 11 -6 11 -12 0z"/>
<path d="M2187 803 c-11 -10 -8 -25 3 -18 16 10 11 -8 -10 -35 -26 -33 -25
-37 8 -32 26 3 28 7 28 48 0 41 -12 55 -29 37z"/>
<path d="M900 790 c0 -5 4 -10 9 -10 6 0 13 5 16 10 3 6 -1 10 -9 10 -9 0 -16
-4 -16 -10z"/>
<path d="M2280 759 c0 -11 5 -17 10 -14 6 3 10 13 10 21 0 8 -4 14 -10 14 -5
0 -10 -9 -10 -21z"/>
<path d="M2237 763 c-14 -13 -6 -33 13 -33 13 0 20 7 20 20 0 19 -20 27 -33
13z"/>
<path d="M1246 748 c3 -4 9 -8 15 -8 5 0 9 4 9 8 0 5 -7 9 -15 9 -8 0 -12 -4
-9 -9z"/>
<path d="M2042 668 c3 -15 2 -26 -1 -25 -10 2 -51 -23 -51 -33 0 -5 13 -4 30
2 34 11 51 52 30 71 -10 10 -12 6 -8 -15z"/>
<path d="M925 650 c-3 -5 -1 -10 4 -10 6 0 11 5 11 10 0 6 -2 10 -4 10 -3 0
-8 -4 -11 -10z"/>
<path d="M1972 651 c-11 -7 -11 -9 1 -14 16 -6 27 0 27 15 0 10 -11 10 -28 -1z"/>
<path d="M1940 510 c-9 -6 -10 -10 -3 -10 6 0 15 5 18 10 8 12 4 12 -15 0z"/>
</g>
</svg>
