<?xml version="1.0" standalone="no"?>
<!DOCTYPE svg PUBLIC "-//W3C//DTD SVG 20010904//EN"
 "http://www.w3.org/TR/2001/REC-SVG-20010904/DTD/svg10.dtd">
<svg version="1.0" xmlns="http://www.w3.org/2000/svg"
 width="600.000000pt" height="400.000000pt" viewBox="0 0 600.000000 400.000000"
 preserveAspectRatio="xMidYMid meet">

<g transform="translate(0.000000,400.000000) scale(0.100000,-0.100000)"
fill="#000000" stroke="none">
<path d="M0 2000 l0 -2000 990 0 989 0 122 50 c67 28 132 50 145 50 12 0 116
-15 231 -34 114 -19 253 -41 308 -50 80 -13 186 -16 518 -16 l417 0 0 40 c0
33 4 40 19 40 21 0 31 -19 31 -56 l0 -24 1115 0 1115 0 0 2000 0 2000 -2564 0
-2565 0 -5 -42 c-8 -60 -36 -295 -36 -303 0 -4 -24 15 -53 41 -62 57 -156 106
-247 129 -102 27 -110 32 -111 79 -1 40 -1 40 -8 10 -4 -17 -11 -35 -14 -41
-7 -11 -126 -7 -157 4 -8 3 -31 6 -50 7 -26 1 -37 6 -42 21 -5 18 -6 18 -7 -4
-1 -13 -12 -34 -27 -47 -31 -30 -36 -30 -30 -1 3 12 8 50 11 85 l6 62 -51 0
-50 0 0 -2000z m4948 1878 c15 -15 -3 -38 -29 -38 -22 0 -33 16 -25 35 7 18
37 20 54 3z m-3078 -38 c0 -5 -5 -10 -11 -10 -5 0 -7 5 -4 10 3 6 8 10 11 10
2 0 4 -4 4 -10z m-1483 -54 c13 -5 14 -17 9 -60 -10 -86 -9 -86 -82 -83 -56 2
-66 5 -70 23 -9 35 0 119 13 119 6 0 14 3 17 6 7 7 92 3 113 -5z m137 -27 c84
-25 177 -79 206 -119 18 -25 20 -38 14 -95 -4 -36 -8 -65 -10 -65 -1 0 -18 14
-36 30 -18 17 -58 42 -88 56 -30 14 -62 29 -71 34 -9 5 -36 12 -60 15 -24 4
-47 9 -51 11 -16 10 -2 154 15 154 5 0 42 -9 81 -21z m-347 -58 c-8 -78 -44
-147 -74 -143 -29 4 -33 19 -26 101 6 73 18 88 41 51 17 -28 30 -25 38 8 16
65 28 56 21 -17z m2028 -101 c10 -11 14 -20 8 -20 -5 0 -18 9 -28 20 -10 11
-14 20 -8 20 5 0 18 -9 28 -20z m74 -59 c-6 -2 -21 6 -33 19 l-21 21 32 -18
c18 -10 28 -20 22 -22z m565 33 c24 -9 19 -24 -8 -24 -28 0 -43 16 -24 23 7 3
14 6 15 6 1 1 8 -2 17 -5z m-2459 -26 c3 -7 1 -26 -3 -43 -8 -28 -11 -30 -48
-26 -21 1 -42 8 -46 14 -11 18 -10 59 2 52 6 -3 10 -1 10 4 0 16 80 14 85 -1z
m108 -14 c15 -3 27 -10 27 -15 0 -5 6 -6 13 -4 18 7 107 -52 116 -77 4 -12 6
-31 3 -44 l-4 -23 -39 26 c-21 14 -71 35 -111 47 -76 24 -86 34 -74 82 5 18
12 24 24 20 9 -3 29 -8 45 -12z m3250 9 c-7 -2 -21 -2 -30 0 -10 3 -4 5 12 5
17 0 24 -2 18 -5z m-1403 -33 c3 -4 43 -32 90 -63 47 -31 94 -63 105 -72 11
-9 27 -20 35 -25 8 -5 12 -11 9 -15 -3 -3 -36 16 -72 42 -78 57 -84 62 -162
114 -33 23 -49 37 -35 33 14 -3 27 -10 30 -14z m1320 -41 c0 -5 5 -7 10 -4 6
3 10 -1 10 -9 0 -21 6 -20 43 5 29 19 30 19 10 1 -13 -11 -23 -22 -23 -25 0
-2 24 -3 53 -1 l52 3 -53 -11 c-46 -10 -52 -13 -46 -31 4 -12 12 -26 18 -33
25 -26 45 -54 40 -54 -3 0 2 -10 10 -22 31 -44 14 -42 -24 2 -39 44 -40 45
-40 18 0 -18 5 -28 15 -28 8 0 19 -9 25 -19 9 -17 5 -20 -41 -30 -66 -14 -67
-14 -96 9 -18 14 -21 20 -10 20 20 0 60 67 45 76 -6 4 -17 -2 -25 -12 -14 -19
-14 -19 -11 1 2 12 -2 19 -9 18 -7 -2 -13 5 -13 14 0 9 3 14 6 10 4 -3 13 0
20 8 15 15 18 26 7 24 -19 -3 -57 3 -46 7 7 3 11 11 9 17 -1 7 -1 9 1 5 3 -5
16 -8 31 -8 20 0 23 3 14 12 -17 17 -15 48 3 48 8 0 15 -5 15 -11z m-3290
-114 c0 -19 -4 -35 -10 -35 -5 0 -10 16 -10 35 0 19 5 35 10 35 6 0 10 -16 10
-35z m108 14 c2 -4 10 -5 18 -2 9 3 14 -1 14 -13 0 -16 2 -17 10 -4 6 10 10
11 10 3 0 -7 7 -13 15 -13 16 0 30 -42 21 -65 -5 -13 -10 -13 -43 3 -21 9 -40
19 -43 22 -3 3 -11 5 -17 6 -7 1 -22 2 -33 3 -14 1 -20 8 -20 25 0 44 10 56
39 49 14 -3 27 -10 29 -14z m2302 -217 c0 -1 -9 2 -20 8 -11 6 -20 15 -20 20
0 6 9 2 20 -7 11 -10 20 -19 20 -21z m1996 -12 c14 6 33 6 48 0 13 -5 26 -7
29 -4 2 3 7 -4 10 -15 3 -13 -4 -25 -22 -38 -39 -28 -60 -38 -31 -14 29 24 20
28 -14 6 -26 -17 -51 -12 -60 12 -5 11 -2 14 10 9 14 -5 15 -4 4 9 -7 8 -23
15 -36 15 -12 0 -25 4 -28 9 -3 4 5 6 18 4 13 -3 27 1 32 8 5 9 9 10 11 2 3
-8 12 -9 29 -3z m-1846 -13 c0 -8 -6 -14 -14 -14 -8 0 -12 6 -9 14 3 7 9 13
14 13 5 0 9 -6 9 -13z m40 -7 c0 -5 -2 -10 -4 -10 -3 0 -8 5 -11 10 -3 6 -1
10 4 10 6 0 11 -4 11 -10z m2035 -21 c-8 -12 -35 -12 -35 0 0 11 22 20 33 14
4 -2 5 -9 2 -14z m-2065 -23 c0 -8 -13 -16 -30 -18 -24 -4 -30 -1 -30 14 0 13
8 18 30 18 19 0 30 -5 30 -14z m54 -2 c16 -6 23 -34 9 -34 -25 1 -53 14 -53
26 0 15 18 18 44 8z m1750 -27 c-11 -6 -21 -4 -33 8 -9 10 -10 15 -3 11 6 -4
12 -2 12 3 0 8 7 7 20 -1 17 -11 18 -14 4 -21z m120 -58 c-9 -10 -21 -16 -27
-12 -6 3 -7 1 -3 -5 3 -6 -2 -15 -11 -21 -15 -8 -15 -10 -2 -11 8 0 21 6 28
13 11 10 13 10 7 0 -4 -8 -1 -13 8 -13 27 0 19 -37 -9 -44 -14 -4 -24 -10 -21
-14 4 -8 -15 -11 -63 -13 -19 -1 -21 -3 -10 -11 10 -7 9 -8 -6 -3 -11 4 -25 8
-31 8 -6 0 -11 6 -11 14 0 8 7 11 19 7 13 -4 16 -1 12 10 -6 15 -61 32 -71 22
-4 -3 -1 -18 6 -32 12 -28 11 -28 -49 -13 -25 7 -30 23 -12 43 13 14 14 20 5
23 -7 3 -13 14 -12 26 0 12 3 17 5 10 3 -7 11 -10 19 -7 7 3 16 -3 20 -15 4
-14 14 -19 34 -19 28 1 33 11 18 36 -5 7 -3 12 3 12 6 0 8 5 4 12 -5 8 0 9 14
6 14 -4 20 -2 16 4 -4 5 -19 8 -34 4 -15 -3 -30 -2 -34 1 -11 12 29 31 55 26
15 -3 30 0 33 6 4 6 18 8 31 5 12 -3 26 -1 30 6 4 7 15 2 31 -16 24 -25 24
-27 8 -45z m-1946 6 c-3 -25 -2 -45 3 -45 5 0 9 21 9 46 l0 46 38 -7 c62 -11
85 -32 79 -70 -4 -24 0 -36 15 -50 19 -16 20 -25 14 -99 -3 -44 -6 -125 -6
-180 0 -97 0 -98 -22 -91 -74 22 -103 26 -192 25 -62 0 -105 -5 -114 -12 -12
-11 -13 10 -7 162 3 96 9 182 11 191 2 8 25 22 51 30 35 11 48 20 49 34 3 66
2 65 40 65 l37 0 -5 -45z m-118 -10 c0 -19 -4 -35 -10 -35 -11 0 -13 30 -4 54
10 25 14 19 14 -19z m700 -5 c0 -5 -9 -10 -20 -10 -11 0 -20 5 -20 10 0 6 9
10 20 10 11 0 20 -4 20 -10z m1200 -20 c8 -5 11 -10 5 -10 -5 0 -17 5 -25 10
-8 5 -10 10 -5 10 6 0 17 -5 25 -10z m-2305 -18 c-3 -3 -11 0 -18 7 -9 10 -8
11 6 5 10 -3 15 -9 12 -12z m50 -30 c-3 -3 -11 0 -18 7 -9 10 -8 11 6 5 10 -3
15 -9 12 -12z m-70 -12 c3 -5 1 -10 -4 -10 -6 0 -11 5 -11 10 0 6 2 10 4 10 3
0 8 -4 11 -10z m-105 -53 c0 -43 9 -42 61 6 12 11 31 17 47 15 l27 -3 -2 -112
c-2 -68 1 -113 7 -113 6 0 10 43 10 104 0 58 4 107 8 110 4 2 23 -3 41 -12
l34 -16 -7 -165 c-4 -91 -9 -167 -10 -168 -1 -1 -19 2 -39 8 -28 7 -37 16 -38
32 -2 20 -2 20 -6 2 -3 -18 -12 -20 -105 -20 l-101 0 7 95 c3 52 6 125 6 162
0 47 5 71 16 82 23 23 44 20 44 -7z m410 -23 c0 -19 3 -34 8 -34 4 0 7 -26 8
-58 1 -40 -1 -49 -6 -32 -5 16 -8 -9 -9 -67 -1 -51 -5 -93 -10 -93 -5 0 -12
-8 -14 -17 -7 -28 -8 173 0 264 6 80 23 107 23 37z m2127 20 c-3 -3 -12 -4
-19 -1 -8 3 -5 6 6 6 11 1 17 -2 13 -5z m68 -4 c8 -13 -35 -38 -67 -38 l-26 1
21 23 c23 23 61 31 72 14z m-195 -26 c0 -9 5 -12 13 -8 8 5 9 4 2 -4 -13 -15
-55 -4 -55 14 0 8 9 14 20 14 11 0 20 -7 20 -16z m-2492 -46 c-1 -41 -1 -41
-5 -8 -3 19 -10 38 -16 42 -8 5 -6 8 6 8 14 0 17 -8 15 -42z m1297 -119 c12
-18 -6 -9 -60 31 -74 55 -78 67 -5 19 33 -22 62 -45 65 -50z m1512 45 c-3 -3
-12 -4 -19 -1 -8 3 -5 6 6 6 11 1 17 -2 13 -5z m-2824 -175 c-4 -5 -6 33 -3
84 l5 92 3 -84 c2 -46 -1 -88 -5 -92z m3781 140 c-7 -11 -34 -12 -34 -1 0 14
11 21 26 15 8 -3 11 -9 8 -14z m-2097 -15 c-3 -3 -12 -4 -19 -1 -8 3 -5 6 6 6
11 1 17 -2 13 -5z m-966 -111 c0 -11 3 -13 6 -5 6 15 59 16 102 1 28 -10 31
-15 31 -51 0 -34 -3 -39 -19 -33 -10 3 -38 9 -62 13 -34 6 -45 12 -50 32 -7
24 -7 24 -8 3 -1 -13 -4 -23 -8 -24 -5 0 -19 -2 -33 -3 -14 -2 -34 0 -45 4
-13 5 -24 2 -33 -9 -10 -14 -12 -10 -10 24 3 37 6 40 43 51 59 18 85 17 86 -3z
m799 -38 c0 -8 -9 -15 -20 -15 -20 0 -26 11 -13 23 12 13 33 7 33 -8z m47 -7
c-3 -8 -6 -5 -6 6 -1 11 2 17 5 13 3 -3 4 -12 1 -19z m43 1 c0 -5 -7 -9 -15
-9 -8 0 -15 7 -15 15 0 9 6 12 15 9 8 -4 15 -10 15 -15z m-3180 -11 c0 -4 -9
-8 -20 -8 -11 0 -20 4 -20 9 0 6 9 9 20 8 11 -1 20 -5 20 -9z m60 -10 c0 -4
-7 -8 -15 -8 -8 0 -15 4 -15 8 0 5 7 9 15 9 8 0 15 -4 15 -9z m1608 -15 c-2
-20 -9 -29 -25 -31 -18 -3 -23 1 -23 21 0 29 7 37 32 37 15 0 19 -6 16 -27z
m112 -9 c0 -29 -3 -35 -16 -30 -9 3 -20 6 -25 6 -5 0 -9 14 -9 30 0 25 4 30
25 30 22 0 25 -4 25 -36z m68 -16 c3 -22 0 -25 -22 -21 -22 5 -26 11 -26 40 0
34 1 35 23 21 12 -9 23 -27 25 -40z m-1728 26 c0 -2 -9 -4 -21 -4 -11 0 -18 4
-14 10 5 8 35 3 35 -6z m2960 1 c0 -8 7 -15 15 -15 8 0 15 7 15 16 0 12 9 14
43 12 39 -3 42 -5 45 -35 2 -18 7 -33 13 -33 5 0 9 -56 9 -130 0 -130 0 -130
-22 -126 -63 13 -110 15 -152 7 l-46 -8 0 128 c0 79 4 129 10 129 6 0 10 13
10 29 0 16 6 32 13 34 25 11 47 7 47 -8z m-2855 -26 c12 -12 -1 -11 -48 2 -21
5 -35 14 -32 19 6 9 63 -6 80 -21z m3998 24 c-13 -2 -33 -2 -45 0 -13 2 -3 4
22 4 25 0 35 -2 23 -4z m-1854 -28 c14 -4 21 -15 21 -30 0 -22 -2 -23 -32 -14
-18 5 -54 9 -79 9 -34 0 -49 5 -53 16 -3 9 -4 19 -1 24 5 9 112 5 144 -5z
m348 -22 c-3 -10 -5 -4 -5 12 0 17 2 24 5 18 2 -7 2 -21 0 -30z m70 -14 c-18
-15 -19 -18 -6 -19 25 0 29 -21 29 -136 l0 -104 -35 0 c-28 0 -38 5 -45 23 -7
17 -9 18 -9 5 -1 -10 -5 -18 -11 -18 -6 0 -10 47 -10 121 0 106 2 120 15 109
11 -10 18 -9 30 4 15 14 15 16 1 16 -15 0 -22 30 -11 42 3 3 21 -2 39 -10 l34
-15 -21 -18z m976 44 c-18 -2 -48 -2 -65 0 -18 2 -4 4 32 4 36 0 50 -2 33 -4z
m-3472 -19 c12 -14 11 -16 -5 -13 -11 2 -21 10 -24 17 -5 17 13 15 29 -4z
m3337 9 c-10 -2 -26 -2 -35 0 -10 3 -2 5 17 5 19 0 27 -2 18 -5z m-1431 -25
c-3 -8 -6 -5 -6 6 -1 11 2 17 5 13 3 -3 4 -12 1 -19z m2768 12 c3 -5 -1 -10
-10 -10 -9 0 -13 5 -10 10 3 6 8 10 10 10 2 0 7 -4 10 -10z m-4966 -36 c2 -2
-10 -4 -27 -4 -17 0 -34 4 -37 10 -5 9 53 3 64 -6z m86 -14 c27 -7 27 -8 5 -8
-14 0 -36 4 -50 8 -20 6 -21 8 -5 8 11 0 34 -4 50 -8z m2873 -127 c-2 -51 -7
-94 -13 -96 -11 -2 -20 197 -9 222 13 33 25 -33 22 -126z m-678 107 c0 -11 -7
-20 -15 -20 -8 0 -15 9 -15 20 0 11 7 20 15 20 8 0 15 -9 15 -20z m64 4 c23
-22 20 -37 -6 -30 -13 3 -29 6 -35 6 -7 0 -13 9 -13 20 0 24 32 27 54 4z m266
-99 c0 -70 -4 -115 -10 -115 -6 0 -10 40 -10 99 0 90 5 131 16 131 2 0 4 -52
4 -115z m-2440 95 c0 -5 -7 -7 -15 -4 -8 4 -15 8 -15 10 0 2 7 4 15 4 8 0 15
-4 15 -10z m50 -10 c13 -9 13 -10 0 -10 -8 0 -22 5 -30 10 -13 9 -13 10 0 10
8 0 22 -5 30 -10z m-237 -7 c-7 -2 -19 -2 -25 0 -7 3 -2 5 12 5 14 0 19 -2 13
-5z m4204 1 c-3 -3 -12 -4 -19 -1 -8 3 -5 6 6 6 11 1 17 -2 13 -5z m-211 -15
c3 -6 0 -15 -7 -20 -22 -14 -29 -11 -29 11 0 21 24 27 36 9z m-3899 -5 c-3 -3
-12 -4 -19 -1 -8 3 -5 6 6 6 11 1 17 -2 13 -5z m4127 -18 c-1 -9 4 -16 12 -16
8 0 11 6 8 15 -4 8 -1 15 5 15 6 0 11 -7 11 -15 0 -8 5 -15 10 -15 6 0 10 -9
10 -21 0 -11 6 -27 14 -34 10 -10 14 -44 15 -113 l2 -100 -63 3 c-58 2 -59 2
-13 -4 42 -5 51 -10 53 -28 3 -22 1 -23 -76 -23 -67 0 -80 3 -78 16 1 8 9 20
17 25 10 6 7 9 -13 9 -23 0 -28 5 -28 24 0 18 -11 29 -47 48 -27 13 -49 32
-51 41 -4 21 21 22 38 2 7 -9 15 -13 18 -10 3 3 14 -2 24 -12 17 -15 18 -13
18 50 0 37 4 67 9 67 5 0 11 12 13 28 3 23 9 28 43 33 l40 6 -34 2 c-36 1 -33
15 4 24 29 7 40 2 39 -17z m-4214 -16 c0 -5 -14 -7 -32 -3 -46 8 -48 13 -5 13
21 0 37 -4 37 -10z m169 -30 c19 -11 -47 -3 -94 11 -22 7 -16 7 24 3 30 -3 62
-9 70 -14z m51 -10 c8 -5 11 -10 5 -10 -5 0 -17 5 -25 10 -8 5 -10 10 -5 10 6
0 17 -5 25 -10z m-40 -42 c17 -5 8 -6 -24 -2 -27 3 -58 10 -70 14 -26 11 57 1
94 -12z m-197 -25 c-7 -2 -19 -2 -25 0 -7 3 -2 5 12 5 14 0 19 -2 13 -5z
m2553 -18 c1 -11 2 -47 3 -79 1 -33 4 -56 7 -53 4 3 6 29 5 57 0 38 3 50 14
50 14 0 23 -45 15 -75 -2 -5 -2 -19 -1 -30 2 -31 -8 -65 -19 -65 -6 0 -11 8
-11 18 -1 16 -2 16 -6 0 -3 -12 -14 -18 -34 -18 l-30 0 1 73 c3 121 9 149 34
145 13 -2 22 -11 22 -23z m658 -11 c9 -3 16 -16 16 -28 0 -22 -3 -23 -90 -23
-86 1 -90 2 -90 23 0 12 6 25 13 27 18 8 133 8 151 1z m-464 -39 c0 -14 -4
-25 -10 -25 -5 0 -10 11 -10 25 0 14 5 25 10 25 6 0 10 -11 10 -25z m60 -11
c0 -20 -4 -25 -16 -20 -9 3 -20 6 -25 6 -5 0 -9 9 -9 20 0 15 7 20 25 20 20 0
25 -5 25 -26z m-1251 0 c2 -2 -5 -4 -17 -4 -12 0 -22 -5 -22 -11 0 -5 4 -7 10
-4 5 3 17 2 27 -3 12 -7 17 -27 20 -79 l3 -70 -71 -2 c-70 -2 -72 -2 -65 21 3
13 6 43 6 68 0 59 37 104 78 94 15 -4 29 -8 31 -10z m71 -40 c0 -8 5 -14 10
-14 6 0 10 -27 10 -60 0 -57 -1 -60 -25 -60 -24 0 -25 2 -24 63 0 34 3 70 5
80 6 20 24 13 24 -9z m1540 12 c0 -11 -13 -15 -50 -14 -54 1 -67 14 -22 21 57
8 72 7 72 -7z m-2610 -6 c8 -5 11 -10 5 -10 -5 0 -17 5 -25 10 -8 5 -10 10 -5
10 6 0 17 -5 25 -10z m2640 -6 c0 -8 -4 -12 -10 -9 -5 3 -10 10 -10 16 0 5 5
9 10 9 6 0 10 -7 10 -16z m-1395 -95 c0 -61 -1 -64 -25 -65 -14 -1 -31 1 -37
3 -16 6 -17 45 -2 60 8 8 8 17 -1 33 -15 27 -1 40 39 36 25 -3 26 -6 26 -67z
m1375 52 c0 -4 -9 -7 -20 -8 -11 -1 -20 4 -20 12 0 8 7 11 20 8 11 -3 20 -8
20 -12z m688 -23 c11 -31 3 -138 -10 -138 -6 0 -16 -7 -22 -16 -12 -16 -51 -9
-40 7 3 5 -2 9 -10 9 -8 0 -17 8 -19 18 -3 9 -5 2 -6 -15 -1 -31 -3 -33 -37
-33 l-35 0 3 53 c2 33 7 51 15 50 6 -1 14 16 18 38 6 34 10 40 26 36 10 -3 19
-1 19 4 0 5 20 9 45 9 38 0 47 -4 53 -22z m-238 -29 c0 -26 -3 -31 -20 -26
-11 3 -20 1 -20 -3 0 -5 9 -12 20 -15 13 -4 20 -15 20 -30 0 -18 -7 -25 -30
-30 -16 -4 -34 -4 -39 -1 -7 5 -9 120 -2 134 0 1 17 2 36 2 33 0 35 -2 35 -31z
m386 1 c0 -11 -5 -20 -11 -20 -6 0 -11 9 -11 20 0 11 5 20 11 20 6 0 11 -9 11
-20z m81 14 c-3 -3 -12 -4 -19 -1 -8 3 -5 6 6 6 11 1 17 -2 13 -5z m-147 -8
c0 -2 -11 -6 -25 -8 -13 -3 -22 -1 -19 3 5 9 44 13 44 5z m105 -34 c0 -9 6
-16 14 -14 19 4 31 -16 31 -55 0 -36 -13 -43 -29 -15 -10 16 -10 16 -11 0 0
-11 -7 -17 -17 -16 -10 1 -29 0 -43 -1 l-25 -3 25 -7 c14 -4 26 -15 28 -24 3
-14 -5 -17 -48 -17 -46 0 -51 -2 -45 -19 4 -13 0 -20 -16 -24 -18 -5 -20 -2
-16 19 3 16 -1 28 -12 34 -14 8 -14 11 -1 20 8 6 24 8 35 6 11 -3 27 -1 35 4
12 8 10 10 -9 10 -22 0 -23 3 -17 41 10 61 25 72 61 43 40 -32 45 -30 45 13 0
20 3 33 7 29 4 -4 8 -15 8 -24z m-1500 -2 c0 -18 -33 -26 -47 -12 -6 6 -7 15
-3 22 10 16 50 8 50 -10z m1718 5 c-2 -6 -25 -11 -53 -13 -46 -3 -61 4 -43 22
11 11 98 2 96 -9z m-33 -35 c0 -5 -9 -10 -20 -10 -11 0 -20 5 -20 10 0 6 9 10
20 10 11 0 20 -4 20 -10z m-2730 -10 c0 -5 -11 -10 -25 -10 -14 0 -25 5 -25
10 0 6 11 10 25 10 14 0 25 -4 25 -10z m30 0 c0 -5 -4 -10 -10 -10 -5 0 -10 5
-10 10 0 6 5 10 10 10 6 0 10 -4 10 -10z m2620 -15 l1 20 8 -20 c11 -27 5 -35
-27 -34 -15 0 -21 3 -14 6 6 2 12 17 13 31 l1 27 8 -25 c7 -21 8 -22 10 -5z
m-3253 9 c-3 -3 -12 -4 -19 -1 -8 3 -5 6 6 6 11 1 17 -2 13 -5z m1636 -1 c-7
-2 -19 -2 -25 0 -7 3 -2 5 12 5 14 0 19 -2 13 -5z m1359 -23 c3 -16 1 -30 -4
-30 -4 0 -8 14 -8 30 0 17 2 30 4 30 2 0 6 -13 8 -30z m933 -9 c7 -12 -12 -24
-25 -16 -11 7 -4 25 10 25 5 0 11 -4 15 -9z m75 -7 c0 -8 -5 -12 -10 -9 -6 4
-8 11 -5 16 9 14 15 11 15 -7z m-3977 -53 c-3 -20 -6 -36 -7 -37 -1 -1 -16 -4
-33 -7 -29 -6 -33 -4 -33 14 0 15 5 19 15 15 8 -3 15 -1 15 5 0 6 7 9 15 5 8
-3 15 -1 15 3 0 5 -7 11 -15 15 -26 9 -18 34 9 29 22 -5 24 -9 19 -42z m3219
10 c-2 -8 3 -11 13 -8 8 4 15 3 16 -1 0 -4 2 -26 5 -50 4 -32 1 -44 -11 -48
-19 -8 -26 -2 -29 23 -2 14 -12 18 -44 19 -23 0 -43 2 -45 5 -3 2 -7 21 -11
42 l-7 38 58 -3 c43 -2 57 -7 55 -17z m-895 3 c-3 -3 -12 -4 -19 -1 -8 3 -5 6
6 6 11 1 17 -2 13 -5z m491 -11 c-5 -26 -38 -29 -38 -4 0 15 6 21 21 21 14 0
19 -5 17 -17z m92 7 c0 -5 -4 -10 -10 -10 -5 0 -10 5 -10 10 0 6 5 10 10 10 6
0 10 -4 10 -10z m-2540 -18 c0 -5 -13 -7 -30 -4 -16 2 -30 6 -30 8 0 2 14 4
30 4 17 0 30 -4 30 -8z m1960 -2 c0 -5 -7 -7 -15 -4 -8 4 -15 8 -15 10 0 2 7
4 15 4 8 0 15 -4 15 -10z m540 6 c0 -3 -4 -8 -10 -11 -5 -3 -10 -1 -10 4 0 6
5 11 10 11 6 0 10 -2 10 -4z m1020 -37 c0 -24 -23 -21 -28 4 -2 10 3 17 12 17
10 0 16 -9 16 -21z m160 1 c0 -22 -3 -23 -50 -13 l-33 6 34 12 c48 18 49 17
49 -5z m-4545 -5 c0 -5 -17 -10 -37 -11 -29 -2 -36 0 -31 12 6 17 68 16 68 -1z
m4302 9 c-3 -3 -12 -4 -19 -1 -8 3 -5 6 6 6 11 1 17 -2 13 -5z m-1485 -34 c-2
-16 -6 -30 -8 -30 -2 0 -4 14 -4 30 0 17 4 30 8 30 5 0 7 -13 4 -30z m1608 20
c0 -5 -4 -10 -10 -10 -5 0 -10 5 -10 10 0 6 5 10 10 10 6 0 10 -4 10 -10z
m-4370 -16 c0 -8 -5 -12 -10 -9 -6 4 -8 11 -5 16 9 14 15 11 15 -7z m414 -20
c9 -24 2 -26 -12 -4 -7 11 -8 20 -3 20 5 0 12 -7 15 -16z m346 -23 c0 -5 10
-12 23 -14 16 -3 14 -5 -9 -6 -20 0 -34 5 -38 14 -3 9 0 15 9 15 8 0 15 -4 15
-9z m3189 -23 c12 -19 11 -23 -3 -33 -9 -7 -16 -17 -16 -23 0 -12 -24 -22 -55
-22 -19 0 -24 7 -30 41 -8 48 1 59 55 59 25 0 39 -6 49 -22z m-2284 -8 c3 -5
1 -10 -4 -10 -6 0 -11 5 -11 10 0 6 2 10 4 10 3 0 8 -4 11 -10z m-1314 -17
c10 -11 10 -14 2 -9 -8 4 -13 2 -13 -4 0 -6 -4 -9 -10 -5 -5 3 -7 12 -3 20 7
19 8 19 24 -2z m414 7 c3 -6 -1 -13 -10 -16 -19 -8 -30 0 -20 15 8 14 22 14
30 1z m1992 -22 c-3 -8 -6 -5 -6 6 -1 11 2 17 5 13 3 -3 4 -12 1 -19z m-2398
-24 c3 -3 -2 -11 -10 -19 -13 -13 -17 -13 -38 1 -18 13 -20 18 -10 25 13 8 47
3 58 -7z m188 -16 c-3 -7 -5 -2 -5 12 0 14 2 19 5 13 2 -7 2 -19 0 -25z m2210
-80 c-2 -18 -4 -4 -4 32 0 36 2 50 4 33 2 -18 2 -48 0 -65z m1193 67 c-12 -15
-30 -12 -30 6 0 5 10 9 21 9 18 0 19 -2 9 -15z m175 -14 c7 -12 -12 -24 -25
-16 -11 7 -4 25 10 25 5 0 11 -4 15 -9z m-1135 -21 c0 -5 -4 -10 -10 -10 -5 0
-10 5 -10 10 0 6 5 10 10 10 6 0 10 -4 10 -10z m-1010 -65 c0 -8 -9 -15 -20
-15 -11 0 -20 7 -20 15 0 8 9 15 20 15 11 0 20 -7 20 -15z m1465 3 c-11 -6
-33 -22 -49 -37 -16 -15 -27 -20 -24 -11 5 17 65 60 82 60 6 0 2 -6 -9 -12z
m-185 -18 c0 -11 -4 -20 -10 -20 -5 0 -10 -5 -10 -12 0 -30 -35 -87 -57 -93
-12 -3 -23 -12 -23 -20 0 -22 -33 -18 -48 5 -16 26 -8 40 20 32 17 -4 20 -2
15 11 -4 10 1 18 14 22 10 4 19 13 19 21 0 8 5 14 12 14 6 0 9 3 5 6 -6 6 42
53 56 54 4 0 7 -9 7 -20z m-503 -52 c-2 -13 -4 -5 -4 17 -1 22 1 32 4 23 2
-10 2 -28 0 -40z m-154 25 c-7 -2 -19 -2 -25 0 -7 3 -2 5 12 5 14 0 19 -2 13
-5z m1362 -3 c3 -5 1 -10 -4 -10 -6 0 -11 5 -11 10 0 6 2 10 4 10 3 0 8 -4 11
-10z m-2266 -92 c2 -17 -15 -5 -44 30 l-30 37 37 -30 c20 -16 37 -33 37 -37z
m121 32 c17 -10 17 -12 19 -75 1 -32 5 -45 16 -45 10 0 14 10 12 38 -2 34 0
37 23 34 13 -1 28 -8 32 -15 6 -9 10 -8 18 3 8 12 10 11 10 -7 0 -12 -12 -34
-26 -50 -18 -19 -23 -34 -19 -50 3 -13 1 -23 -5 -23 -6 0 -8 -13 -5 -31 5 -28
4 -29 -9 -16 -9 8 -34 18 -56 22 -35 6 -39 9 -29 22 10 12 10 16 -2 24 -23 14
-29 11 -30 -18 l-2 -28 -4 28 c-2 15 -11 27 -19 27 -27 0 -17 77 16 126 33 47
37 49 60 34z m118 -17 c2 -8 -5 -13 -17 -13 -21 0 -35 13 -24 24 10 10 36 3
41 -11z m402 12 c0 -4 -5 -16 -11 -27 -9 -17 -8 -23 5 -30 9 -5 16 -22 16 -38
0 -26 -4 -30 -27 -30 -22 0 -25 -2 -13 -10 23 -14 -29 -62 -53 -48 -26 14 -20
26 16 31 31 4 30 4 -6 5 l-39 2 5 48 c5 41 14 96 16 98 6 4 91 3 91 -1z
m-2997 -42 c-8 -52 -13 -54 -13 -5 0 23 4 42 9 42 6 0 7 -17 4 -37z m2705 25
c-2 -9 11 -13 40 -14 65 -3 72 -8 71 -56 0 -33 -2 -38 -9 -23 -7 15 -9 10 -9
-23 -1 -35 -5 -44 -23 -52 -13 -5 -17 -9 -10 -9 6 -1 12 -6 12 -12 0 -6 -9 -8
-21 -4 -16 6 -20 4 -13 -6 6 -11 4 -11 -10 1 -17 13 -17 14 0 20 14 5 15 8 4
15 -10 6 -9 10 8 16 20 8 20 8 -10 68 -17 33 -39 63 -49 66 -25 8 -24 25 1 25
11 0 19 -6 18 -12z m-1641 -20 c-3 -8 -6 -5 -6 6 -1 11 2 17 5 13 3 -3 4 -12
1 -19z m2339 5 c13 -17 13 -17 14 0 0 10 4 16 9 13 10 -6 9 -20 -3 -48 -7 -15
-9 -15 -27 3 -18 18 -26 49 -13 49 4 0 13 -8 20 -17z m75 -27 c11 -12 12 -26
2 -26 -13 0 -33 52 -25 64 4 7 8 3 10 -9 2 -11 8 -24 13 -29z m19 23 c0 -11
-4 -18 -10 -14 -5 3 -7 12 -3 20 7 21 13 19 13 -6z m99 -1 c1 17 21 15 21 -2
0 -8 -6 -16 -14 -19 -18 -7 -40 18 -30 34 5 9 10 7 15 -7 4 -10 8 -13 8 -6z
m68 0 c-3 -8 -6 -5 -6 6 -1 11 2 17 5 13 3 -3 4 -12 1 -19z m-331 0 c8 -8 -7
-58 -17 -58 -16 0 -49 34 -49 51 0 12 8 16 30 14 17 -1 33 -4 36 -7z m-2779
-35 c-3 -10 -5 -4 -5 12 0 17 2 24 5 18 2 -7 2 -21 0 -30z m224 -6 c-8 -8 -11
-5 -11 9 0 27 14 41 18 19 2 -9 -1 -22 -7 -28z m1459 18 c0 -14 -8 -29 -19
-35 -28 -14 -41 -13 -41 6 0 8 4 13 9 10 5 -3 12 5 15 19 8 33 36 33 36 0z
m930 9 c0 -8 -4 -12 -10 -9 -5 3 -10 10 -10 16 0 5 5 9 10 9 6 0 10 -7 10 -16z
m47 -16 c-3 -7 -5 -2 -5 12 0 14 2 19 5 13 2 -7 2 -19 0 -25z m-2583 -13 c-7
-16 -24 -21 -24 -6 0 8 7 13 27 20 1 1 0 -6 -3 -14z m2906 -4 c0 -5 -7 -11
-15 -15 -9 -3 -15 0 -15 9 0 8 7 15 15 15 8 0 15 -4 15 -9z m-53 -35 c-3 -6
-11 -10 -18 -8 -7 2 -26 4 -41 4 -15 1 -28 6 -28 12 0 7 17 10 45 8 29 -3 44
-8 42 -16z m-97 4 c3 0 -2 -5 -10 -9 -19 -12 -110 -2 -110 11 0 9 49 8 120 -2z
m1503 -14 c3 -8 0 -17 -8 -20 -14 -5 -28 17 -18 28 10 10 21 7 26 -8z m-3903
-17 c0 -14 -16 -11 -29 5 -10 12 -8 13 8 9 12 -3 21 -9 21 -14z m3590 1 c0
-21 -15 -27 -25 -10 -7 12 2 30 16 30 5 0 9 -9 9 -20z m174 4 c9 -22 -3 -32
-14 -14 -12 19 -12 30 -1 30 5 0 12 -7 15 -16z m-1429 -4 c3 -5 1 -10 -4 -10
-6 0 -11 5 -11 10 0 6 2 10 4 10 3 0 8 -4 11 -10z m-1135 -15 c0 -8 -4 -15
-10 -15 -5 0 -10 7 -10 15 0 8 5 15 10 15 6 0 10 -7 10 -15z m2530 -9 c0 -8
-4 -17 -9 -21 -12 -7 -24 12 -16 25 9 15 25 12 25 -4z m-4043 -48 c-3 -8 -6
-5 -6 6 -1 11 2 17 5 13 3 -3 4 -12 1 -19z m3878 3 c-3 -5 3 -12 12 -14 10 -3
5 -5 -12 -5 -16 0 -59 -3 -95 -6 -44 -4 -59 -3 -45 3 11 5 37 10 58 10 20 1
37 6 37 11 0 6 12 10 26 10 14 0 23 -4 19 -9z m-3812 -24 c-3 -17 2 -28 21
-41 26 -16 36 -46 16 -46 -6 0 -9 -12 -8 -27 2 -22 -2 -29 -19 -31 -34 -5 -63
15 -63 44 0 14 -4 22 -10 19 -5 -3 -10 1 -10 10 0 10 5 13 12 9 7 -5 9 -2 5 8
-3 10 0 15 11 14 11 -1 20 11 27 32 11 37 24 44 18 9z m1794 -6 c17 -23 10
-27 -41 -23 -40 3 -46 7 -45 26 0 20 1 20 9 1 8 -20 9 -20 9 1 1 18 6 20 29
16 15 -3 32 -12 39 -21z m263 19 c0 -5 -5 -10 -11 -10 -5 0 -7 5 -4 10 3 6 8
10 11 10 2 0 4 -4 4 -10z m1430 6 c0 -3 -4 -8 -10 -11 -5 -3 -10 -1 -10 4 0 6
5 11 10 11 6 0 10 -2 10 -4z m-3530 -20 c0 -2 -7 -6 -15 -10 -8 -3 -15 -1 -15
4 0 6 7 10 15 10 8 0 15 -2 15 -4z m285 -64 c-1 -26 3 -50 9 -54 8 -6 6 -11
-4 -18 -10 -6 -11 -10 -3 -10 7 0 27 -9 44 -19 l31 -19 -47 -4 c-59 -4 -68 9
-55 88 7 44 7 60 -3 66 -9 6 -9 8 1 8 6 0 12 8 12 18 0 13 2 14 9 4 4 -7 7
-34 6 -60z m3632 26 c-3 -8 -6 -5 -6 6 -1 11 2 17 5 13 3 -3 4 -12 1 -19z
m-257 -4 c0 -2 -18 -4 -40 -4 -22 0 -40 3 -40 8 0 4 18 6 40 4 22 -2 40 -6 40
-8z m159 -36 c-1 -55 -5 -50 -11 15 -2 20 0 37 4 37 4 0 7 -24 7 -52z m-599
27 c0 -8 -6 -15 -14 -15 -17 0 -28 14 -19 24 12 12 33 6 33 -9z m-1440 -32 c0
-57 -12 -70 -44 -47 -18 14 -25 28 -26 52 0 30 2 32 35 32 34 0 35 -1 35 -37z
m112 27 c5 0 8 -10 6 -22 -2 -17 -11 -24 -30 -26 -24 -3 -28 0 -28 21 0 29 9
39 28 32 7 -3 18 -5 24 -5z m1861 3 c-7 -2 -19 -2 -25 0 -7 3 -2 5 12 5 14 0
19 -2 13 -5z m-693 -13 c0 -5 -2 -10 -4 -10 -3 0 -8 5 -11 10 -3 6 -1 10 4 10
6 0 11 -4 11 -10z m47 -22 c-3 -8 -6 -5 -6 6 -1 11 2 17 5 13 3 -3 4 -12 1
-19z m113 5 c0 -5 -5 -15 -10 -23 -8 -12 -10 -11 -10 8 0 12 5 22 10 22 6 0
10 -3 10 -7z m445 -15 c-1 -17 -9 -24 -28 -26 -33 -4 -36 14 -4 24 21 7 21 7
2 15 -18 7 -17 8 6 8 21 1 25 -3 24 -21z m97 3 c4 -3 4 -42 1 -86 -6 -77 -21
-83 -22 -8 -1 23 -8 37 -25 48 -13 9 -26 27 -28 40 -5 22 -2 23 31 18 20 -3
39 -8 43 -12z m-1097 -1 c-3 -5 -14 -10 -23 -9 -14 0 -13 2 3 9 27 11 27 11
20 0z m-1875 -10 c0 -23 -233 -71 -252 -52 -9 9 -3 12 25 12 36 0 54 19 20 21
-22 2 130 26 175 28 17 0 32 -3 32 -9z m2692 -15 c0 -5 -5 -11 -10 -13 -5 -1
-9 4 -9 13 0 9 4 14 9 13 5 -2 10 -8 10 -13z m-3509 -16 c-6 -6 -18 -6 -28 -3
-18 7 -18 8 1 14 23 9 39 1 27 -11z m3347 -8 c0 -6 -9 -9 -19 -8 -11 0 -17 5
-15 9 7 11 34 10 34 -1z m-190 -11 c13 -9 12 -13 -8 -28 -21 -17 -22 -19 -7
-32 14 -11 17 -10 22 8 3 12 11 22 19 22 23 0 25 -18 3 -33 -13 -10 -17 -17
-9 -22 6 -4 18 -1 26 6 13 10 17 10 25 -2 8 -12 10 -12 19 1 8 13 10 13 10 -2
0 -10 -11 -25 -25 -34 -14 -9 -25 -25 -25 -35 0 -13 -7 -19 -22 -19 -19 0 -20
2 -8 10 10 6 11 10 3 10 -7 0 -13 8 -13 18 0 24 -28 49 -60 54 -14 1 -26 9
-26 16 -1 6 -3 14 -4 17 -9 18 -3 32 20 42 31 15 41 15 60 3z m-2677 -7 c-18
-2 -48 -2 -65 0 -18 2 -4 4 32 4 36 0 50 -2 33 -4z m3217 -4 c0 -7 -19 -8 -57
-3 -78 9 -79 14 -5 14 38 0 62 -4 62 -11z m420 8 c0 -2 -10 -12 -22 -23 l-23
-19 19 23 c18 21 26 27 26 19z m-1060 -47 c0 -5 -4 -10 -10 -10 -5 0 -10 5
-10 10 0 6 5 10 10 10 6 0 10 -4 10 -10z m558 -18 c-3 -26 4 -32 30 -26 15 4
31 11 37 15 23 21 34 7 41 -51 6 -55 9 -60 31 -60 13 0 22 4 18 9 -3 5 -1 12
5 16 9 5 10 0 10 -32 0 -5 -27 -6 -59 -5 -33 2 -69 1 -80 -3 -18 -5 -19 -9 -9
-28 22 -43 45 -54 117 -56 37 -1 83 -6 100 -11 17 -5 31 -7 31 -4 0 2 12 -2
28 -10 23 -12 72 -66 72 -79 0 -5 -150 -10 -218 -8 l-44 1 7 -119 c8 -131 6
-136 -50 -125 -39 7 -46 19 -15 27 18 4 20 14 20 74 0 37 2 100 5 138 5 61 4
66 -7 40 -6 -16 -17 -36 -25 -43 -11 -11 -11 -17 2 -35 20 -28 19 -38 -2 -30
-10 4 -14 2 -9 -5 4 -6 -3 -12 -16 -14 -15 -2 -24 -11 -26 -27 -4 -23 -5 -22
-43 15 -40 39 -53 84 -24 84 8 0 15 5 15 10 0 6 -4 10 -10 10 -5 0 -19 20 -31
44 -15 33 -27 46 -45 48 -31 4 -32 22 -2 26 13 2 28 8 35 13 7 7 12 6 15 -2 8
-24 48 9 48 40 0 31 -36 55 -67 45 -14 -4 -14 -3 2 7 11 8 22 14 25 14 16 1
28 18 23 30 -3 8 0 15 7 15 6 0 10 8 8 18 -4 24 19 52 37 45 8 -2 14 -8 13
-11z m331 -16 c11 -12 22 -32 24 -44 2 -12 12 -28 23 -36 32 -24 3 -40 -79
-44 l-73 -4 -2 71 c-2 40 -1 75 2 79 9 16 84 0 105 -22z m102 -53 c-8 -15 -10
-15 -11 -2 0 17 10 32 18 25 2 -3 -1 -13 -7 -23z m-1001 -13 c0 -5 10 -11 23
-13 12 -2 -8 -5 -45 -6 -69 -1 -86 8 -46 26 24 10 68 6 68 -7z m110 -10 c0 -9
-23 -30 -32 -30 -4 0 -8 9 -8 19 0 14 6 19 20 18 11 -1 20 -4 20 -7z m208 -17
c-16 -2 -40 -2 -55 0 -16 2 -3 4 27 4 30 0 43 -2 28 -4z m-958 -47 c0 -2 -7
-9 -15 -16 -12 -10 -15 -10 -15 4 0 9 7 16 15 16 8 0 15 -2 15 -4z m345 -15
c-19 -8 -19 -8 2 -19 12 -7 29 -12 37 -12 9 0 16 -5 16 -11 0 -6 -7 -8 -16 -5
-9 3 -31 6 -50 6 -21 0 -34 5 -34 13 0 20 21 37 45 36 20 0 20 -1 0 -8z m128
2 c-7 -2 -21 -2 -30 0 -10 3 -4 5 12 5 17 0 24 -2 18 -5z m438 -33 l48 0 -6
-37 c-4 -21 -13 -43 -22 -50 -28 -20 -2 -28 84 -25 75 2 83 1 88 -17 3 -12 -1
-22 -9 -25 -8 -3 -14 -12 -14 -20 0 -12 -6 -12 -42 1 l-42 14 -39 -39 c-35
-35 -37 -40 -23 -55 9 -8 16 -24 16 -34 0 -15 2 -16 10 -3 6 10 10 11 10 3 0
-7 9 -13 20 -13 43 0 17 -18 -32 -23 -72 -7 -267 4 -274 15 -3 5 2 18 12 29
14 15 28 19 68 17 28 -2 54 -7 58 -13 4 -5 10 -6 15 -2 4 5 1 13 -7 18 -13 8
-11 12 8 26 13 9 22 26 22 42 0 46 11 71 31 71 31 0 21 18 -16 30 -36 12 -57
36 -70 79 -7 23 -5 24 25 17 18 -3 54 -6 81 -6z m-1019 -141 c-2 -13 10 -18
62 -24 42 -4 66 -11 70 -21 3 -8 13 -14 22 -14 21 0 54 -28 54 -47 0 -17 -42
-17 -216 2 -76 8 -163 18 -191 21 -29 3 -53 10 -53 15 0 5 6 9 13 9 6 1 55 18
107 40 100 41 137 46 132 19z m1696 -56 c31 -5 46 -32 20 -34 -65 -5 -108 10
-108 38 0 12 7 14 28 8 15 -3 42 -9 60 -12z m-3598 -148 c19 -23 4 -47 -27
-43 -31 3 -44 35 -21 49 19 13 34 11 48 -6z m3214 0 c3 -8 1 -15 -4 -15 -6 0
-10 7 -10 15 0 8 2 15 4 15 2 0 6 -7 10 -15z m-2897 -43 c14 -9 -2 -171 -19
-188 -9 -8 -22 62 -14 74 3 5 -4 19 -15 31 -20 21 -20 24 -4 57 16 34 29 41
52 26z"/>
<path d="M3667 3305 l-17 -35 25 0 c22 0 25 4 25 35 0 19 -4 35 -8 35 -5 0
-16 -16 -25 -35z"/>
<path d="M4770 2945 c-14 -8 -20 -14 -14 -15 5 0 19 7 30 15 24 18 16 19 -16
0z"/>
<path d="M4650 2891 c0 -6 4 -13 10 -16 6 -3 7 1 4 9 -7 18 -14 21 -14 7z"/>
<path d="M2968 2953 c7 -3 16 -2 19 1 4 3 -2 6 -13 5 -11 0 -14 -3 -6 -6z"/>
<path d="M3008 2943 c7 -3 16 -2 19 1 4 3 -2 6 -13 5 -11 0 -14 -3 -6 -6z"/>
<path d="M3683 2413 c9 -2 23 -2 30 0 6 3 -1 5 -18 5 -16 0 -22 -2 -12 -5z"/>
<path d="M3322 2250 c0 -19 2 -27 5 -17 2 9 2 25 0 35 -3 9 -5 1 -5 -18z"/>
<path d="M2202 1985 c0 -16 2 -22 5 -12 2 9 2 23 0 30 -3 6 -5 -1 -5 -18z"/>
<path d="M4333 1930 c0 -25 2 -35 4 -22 2 12 2 32 0 45 -2 12 -4 2 -4 -23z"/>
<path d="M1373 943 c9 -2 23 -2 30 0 6 3 -1 5 -18 5 -16 0 -22 -2 -12 -5z"/>
<path d="M4184 939 c-3 -5 6 -9 20 -9 31 0 34 6 6 13 -11 3 -23 1 -26 -4z"/>
<path d="M152 3970 c0 -19 2 -27 5 -17 2 9 2 25 0 35 -3 9 -5 1 -5 -18z"/>
<path d="M173 3940 c0 -25 2 -35 4 -22 2 12 2 32 0 45 -2 12 -4 2 -4 -23z"/>
</g>
</svg>
